<svg width="1024" height="1024" viewBox="0 0 1024 1024" fill="none" xmlns="http://www.w3.org/2000/svg">
<mask id="mask0_3373_23" style="mask-type:alpha" maskUnits="userSpaceOnUse" x="0" y="0" width="1024" height="1024">
<rect width="1024" height="1024" fill="url(#paint0_linear_3373_23)"/>
</mask>
<g mask="url(#mask0_3373_23)">
<rect width="1024" height="1024" fill="#22003D"/>
<circle cx="512" cy="512" r="490" stroke="#5D5FEF" stroke-opacity="0.5" stroke-width="20"/>
<path d="M512 952C755.005 952 952 755.005 952 512C952 268.995 755.005 72 512 72C268.995 72 72 268.995 72 512C72 755.005 268.995 952 512 952Z" fill="url(#paint1_radial_3373_23)" fill-opacity="0.5"/>
<path d="M512 72.2002C754.895 72.2002 951.8 269.105 951.8 512C951.8 754.895 754.895 951.8 512 951.8C269.105 951.8 72.2002 754.895 72.2002 512C72.2002 269.105 269.105 72.2002 512 72.2002Z" stroke="#5D5FEF" stroke-opacity="0.5" stroke-width="0.4"/>
<path opacity="0.9" d="M512.429 917.857C736.341 917.857 917.857 736.341 917.857 512.429C917.857 288.517 736.341 107 512.429 107C288.517 107 107 288.517 107 512.429C107 736.341 288.517 917.857 512.429 917.857Z" stroke="#A6E3A1" stroke-width="10"/>
<path d="M510.743 138.6C716.271 138.6 882.886 305.214 882.886 510.743C882.886 716.272 716.271 882.886 510.743 882.886C305.214 882.886 138.6 716.271 138.6 510.743C138.6 305.214 305.214 138.6 510.743 138.6Z" stroke="#5D5FEF" stroke-width="10"/>
<circle cx="512" cy="512" r="365" stroke="url(#paint2_radial_3373_23)" stroke-opacity="0.8" stroke-width="20"/>
<path d="M511.672 203C682.147 203 820.344 341.197 820.344 511.672C820.344 682.147 682.147 820.344 511.672 820.344C341.197 820.344 203 682.147 203 511.672C203 341.197 341.197 203 511.672 203Z" stroke="#5D5FEF" stroke-width="10"/>
<path d="M512 249.188C582.737 249.188 643.801 273.07 694.935 320.773C748.316 366.8 774.812 430.766 774.812 512C774.812 593.274 748.294 658.186 694.942 706.148L694.934 706.156C643.775 751.927 582.709 774.812 512 774.812C441.293 774.812 379.3 751.93 326.24 706.218L326.164 706.152L326.092 706.085C274.698 658.106 249.188 593.213 249.188 512C249.188 430.793 274.699 366.823 326.17 320.773C379.219 273.087 441.236 249.188 512 249.188Z" stroke="#AA43FF" stroke-width="10"/>
<path opacity="0.9" d="M512.502 274.109C643.213 274.11 749.175 380.072 749.175 510.783C749.175 641.494 643.213 747.456 512.502 747.456C381.791 747.456 275.828 641.494 275.828 510.783C275.828 380.072 381.791 274.109 512.502 274.109Z" stroke="#8AFF80" stroke-width="10"/>
<mask id="path-12-outside-1_3373_23" maskUnits="userSpaceOnUse" x="19" y="362" width="996" height="379" fill="black">
<rect fill="white" x="19" y="362" width="996" height="379"/>
<path d="M59.8109 695V481.64C70.451 478.56 84.171 475.76 100.971 473.24C117.771 470.44 135.411 469.04 153.891 469.04C179.091 469.04 198.691 473.38 212.691 482.06C226.691 490.46 236.491 502.22 242.091 517.34C247.691 532.46 250.491 550.1 250.491 570.26V695H187.911V577.82C187.911 564.38 186.791 553.6 184.551 545.48C182.311 537.36 178.391 531.48 172.791 527.84C167.471 524.2 159.911 522.38 150.111 522.38C145.631 522.38 140.871 522.66 135.831 523.22C130.791 523.5 126.311 523.92 122.391 524.48V695H59.8109Z"/>
<path d="M358.795 700.04C336.115 700.04 318.335 696.12 305.455 688.28C292.855 680.16 284.035 668.96 278.995 654.68C273.955 640.4 271.435 623.74 271.435 604.7V419.06L334.015 408.98V474.08H409.195V526.16H334.015V603.86C334.015 612.54 334.995 620.24 336.955 626.96C338.915 633.4 342.415 638.44 347.455 642.08C352.495 645.44 359.635 647.12 368.875 647.12C375.595 647.12 382.455 646.56 389.455 645.44C396.735 644.04 403.315 642.22 409.195 639.98L418.015 688.7C410.455 691.78 402.055 694.44 392.815 696.68C383.575 698.92 372.235 700.04 358.795 700.04ZM426.556 695V485.84C437.756 481.92 450.916 478.28 466.036 474.92C481.436 471.28 498.516 469.46 517.276 469.46C521.756 469.46 527.216 469.88 533.656 470.72C540.376 471.28 546.956 472.12 553.396 473.24C560.116 474.36 565.716 475.9 570.196 477.86L559.696 529.52C554.096 528.12 547.516 526.72 539.956 525.32C532.396 523.64 524.276 522.8 515.596 522.8C511.676 522.8 506.916 523.22 501.316 524.06C495.996 524.62 491.936 525.32 489.136 526.16V695H426.556ZM672.302 700.88C645.702 700.88 623.722 695.84 606.362 685.76C589.282 675.68 576.542 661.96 568.142 644.6C559.742 627.24 555.542 607.78 555.542 586.22C555.542 560.18 560.582 538.48 570.662 521.12C581.022 503.48 594.182 490.32 610.142 481.64C626.382 472.68 643.462 468.2 661.382 468.2C682.382 468.2 700.442 472.54 715.562 481.22C730.682 489.62 742.302 502.22 750.422 519.02C758.822 535.82 763.022 556.68 763.022 581.6C763.022 585.24 762.882 589.3 762.602 593.78C762.322 597.98 762.042 601.76 761.762 605.12H619.802C621.202 618 627.222 628.22 637.862 635.78C648.502 643.34 662.782 647.12 680.702 647.12C692.182 647.12 703.382 646.14 714.302 644.18C725.502 641.94 734.602 639.28 741.602 636.2L750.002 687.02C743.282 690.38 732.502 693.46 717.662 696.26C703.102 699.34 687.982 700.88 672.302 700.88ZM619.802 562.28H702.542C702.262 555.28 700.722 548.56 697.922 542.12C695.122 535.68 690.782 530.36 684.902 526.16C679.302 521.96 671.742 519.86 662.222 519.86C652.702 519.86 645.002 521.96 639.122 526.16C633.522 530.08 629.182 535.26 626.102 541.7C623.022 548.14 620.922 555 619.802 562.28ZM883.976 700.88C857.376 700.88 835.396 695.84 818.036 685.76C800.956 675.68 788.216 661.96 779.816 644.6C771.416 627.24 767.216 607.78 767.216 586.22C767.216 560.18 772.256 538.48 782.336 521.12C792.696 503.48 805.856 490.32 821.816 481.64C838.056 472.68 855.136 468.2 873.056 468.2C894.056 468.2 912.116 472.54 927.236 481.22C942.356 489.62 953.976 502.22 962.096 519.02C970.496 535.82 974.696 556.68 974.696 581.6C974.696 585.24 974.556 589.3 974.276 593.78C973.996 597.98 973.716 601.76 973.436 605.12H831.476C832.876 618 838.896 628.22 849.536 635.78C860.176 643.34 874.456 647.12 892.376 647.12C903.856 647.12 915.056 646.14 925.976 644.18C937.176 641.94 946.276 639.28 953.276 636.2L961.676 687.02C954.956 690.38 944.176 693.46 929.336 696.26C914.776 699.34 899.656 700.88 883.976 700.88ZM831.476 562.28H914.216C913.936 555.28 912.396 548.56 909.596 542.12C906.796 535.68 902.456 530.36 896.576 526.16C890.976 521.96 883.416 519.86 873.896 519.86C864.376 519.86 856.676 521.96 850.796 526.16C845.196 530.08 840.856 535.26 837.776 541.7C834.696 548.14 832.596 555 831.476 562.28Z"/>
</mask>
<path d="M59.8109 695V481.64C70.451 478.56 84.171 475.76 100.971 473.24C117.771 470.44 135.411 469.04 153.891 469.04C179.091 469.04 198.691 473.38 212.691 482.06C226.691 490.46 236.491 502.22 242.091 517.34C247.691 532.46 250.491 550.1 250.491 570.26V695H187.911V577.82C187.911 564.38 186.791 553.6 184.551 545.48C182.311 537.36 178.391 531.48 172.791 527.84C167.471 524.2 159.911 522.38 150.111 522.38C145.631 522.38 140.871 522.66 135.831 523.22C130.791 523.5 126.311 523.92 122.391 524.48V695H59.8109Z" fill="white"/>
<path d="M358.795 700.04C336.115 700.04 318.335 696.12 305.455 688.28C292.855 680.16 284.035 668.96 278.995 654.68C273.955 640.4 271.435 623.74 271.435 604.7V419.06L334.015 408.98V474.08H409.195V526.16H334.015V603.86C334.015 612.54 334.995 620.24 336.955 626.96C338.915 633.4 342.415 638.44 347.455 642.08C352.495 645.44 359.635 647.12 368.875 647.12C375.595 647.12 382.455 646.56 389.455 645.44C396.735 644.04 403.315 642.22 409.195 639.98L418.015 688.7C410.455 691.78 402.055 694.44 392.815 696.68C383.575 698.92 372.235 700.04 358.795 700.04ZM426.556 695V485.84C437.756 481.92 450.916 478.28 466.036 474.92C481.436 471.28 498.516 469.46 517.276 469.46C521.756 469.46 527.216 469.88 533.656 470.72C540.376 471.28 546.956 472.12 553.396 473.24C560.116 474.36 565.716 475.9 570.196 477.86L559.696 529.52C554.096 528.12 547.516 526.72 539.956 525.32C532.396 523.64 524.276 522.8 515.596 522.8C511.676 522.8 506.916 523.22 501.316 524.06C495.996 524.62 491.936 525.32 489.136 526.16V695H426.556ZM672.302 700.88C645.702 700.88 623.722 695.84 606.362 685.76C589.282 675.68 576.542 661.96 568.142 644.6C559.742 627.24 555.542 607.78 555.542 586.22C555.542 560.18 560.582 538.48 570.662 521.12C581.022 503.48 594.182 490.32 610.142 481.64C626.382 472.68 643.462 468.2 661.382 468.2C682.382 468.2 700.442 472.54 715.562 481.22C730.682 489.62 742.302 502.22 750.422 519.02C758.822 535.82 763.022 556.68 763.022 581.6C763.022 585.24 762.882 589.3 762.602 593.78C762.322 597.98 762.042 601.76 761.762 605.12H619.802C621.202 618 627.222 628.22 637.862 635.78C648.502 643.34 662.782 647.12 680.702 647.12C692.182 647.12 703.382 646.14 714.302 644.18C725.502 641.94 734.602 639.28 741.602 636.2L750.002 687.02C743.282 690.38 732.502 693.46 717.662 696.26C703.102 699.34 687.982 700.88 672.302 700.88ZM619.802 562.28H702.542C702.262 555.28 700.722 548.56 697.922 542.12C695.122 535.68 690.782 530.36 684.902 526.16C679.302 521.96 671.742 519.86 662.222 519.86C652.702 519.86 645.002 521.96 639.122 526.16C633.522 530.08 629.182 535.26 626.102 541.7C623.022 548.14 620.922 555 619.802 562.28ZM883.976 700.88C857.376 700.88 835.396 695.84 818.036 685.76C800.956 675.68 788.216 661.96 779.816 644.6C771.416 627.24 767.216 607.78 767.216 586.22C767.216 560.18 772.256 538.48 782.336 521.12C792.696 503.48 805.856 490.32 821.816 481.64C838.056 472.68 855.136 468.2 873.056 468.2C894.056 468.2 912.116 472.54 927.236 481.22C942.356 489.62 953.976 502.22 962.096 519.02C970.496 535.82 974.696 556.68 974.696 581.6C974.696 585.24 974.556 589.3 974.276 593.78C973.996 597.98 973.716 601.76 973.436 605.12H831.476C832.876 618 838.896 628.22 849.536 635.78C860.176 643.34 874.456 647.12 892.376 647.12C903.856 647.12 915.056 646.14 925.976 644.18C937.176 641.94 946.276 639.28 953.276 636.2L961.676 687.02C954.956 690.38 944.176 693.46 929.336 696.26C914.776 699.34 899.656 700.88 883.976 700.88ZM831.476 562.28H914.216C913.936 555.28 912.396 548.56 909.596 542.12C906.796 535.68 902.456 530.36 896.576 526.16C890.976 521.96 883.416 519.86 873.896 519.86C864.376 519.86 856.676 521.96 850.796 526.16C845.196 530.08 840.856 535.26 837.776 541.7C834.696 548.14 832.596 555 831.476 562.28Z" fill="#CFFFCB"/>
<path d="M59.811 695H19.811V735H59.811V695ZM59.811 481.64L48.6886 443.217L19.811 451.577V481.64H59.811ZM100.971 473.24L106.905 512.797L107.226 512.749L107.547 512.696L100.971 473.24ZM212.691 482.06L191.613 516.056L191.861 516.21L192.111 516.36L212.691 482.06ZM242.091 517.34L204.581 531.233L204.581 531.233L242.091 517.34ZM250.491 695V735H290.491V695H250.491ZM187.911 695H147.911V735H187.911V695ZM184.551 545.48L145.991 556.117L145.991 556.117L184.551 545.48ZM172.791 527.84L150.204 560.852L150.594 561.12L150.991 561.378L172.791 527.84ZM135.831 523.22L138.05 563.158L139.152 563.097L140.248 562.975L135.831 523.22ZM122.391 524.48L116.734 484.882L82.391 489.788V524.48H122.391ZM122.391 695V735H162.391V695H122.391ZM59.811 695H99.811V481.64H59.811H19.811V695H59.811ZM59.811 481.64L70.9333 520.063C79.227 517.662 91.0386 515.177 106.905 512.797L100.971 473.24L95.0374 433.683C77.3033 436.343 61.6749 439.458 48.6886 443.217L59.811 481.64ZM100.971 473.24L107.547 512.696C121.999 510.287 137.43 509.04 153.891 509.04V469.04V429.04C133.392 429.04 113.543 430.593 94.395 433.784L100.971 473.24ZM153.891 469.04V509.04C175.291 509.04 186.456 512.859 191.613 516.056L212.691 482.06L233.769 448.064C210.926 433.901 182.891 429.04 153.891 429.04V469.04ZM212.691 482.06L192.111 516.36C198.419 520.144 202.183 524.758 204.581 531.233L242.091 517.34L279.601 503.447C270.799 479.682 254.963 460.776 233.271 447.76L212.691 482.06ZM242.091 517.34L204.581 531.233C208.18 540.949 210.491 553.702 210.491 570.26H250.491H290.491C290.491 546.498 287.202 523.971 279.601 503.447L242.091 517.34ZM250.491 570.26H210.491V695H250.491H290.491V570.26H250.491ZM250.491 695V655H187.911V695V735H250.491V695ZM187.911 695H227.911V577.82H187.911H147.911V695H187.911ZM187.911 577.82H227.911C227.911 562.649 226.7 547.854 223.111 534.843L184.551 545.48L145.991 556.117C146.882 559.346 147.911 566.111 147.911 577.82H187.911ZM184.551 545.48L223.111 534.843C218.973 519.844 210.361 504.553 194.59 494.302L172.791 527.84L150.991 561.378C148.971 560.064 147.527 558.485 146.649 557.168C145.842 555.958 145.793 555.399 145.991 556.117L184.551 545.48ZM172.791 527.84L195.378 494.828C180.771 484.834 164.047 482.38 150.111 482.38V522.38V562.38C151.334 562.38 152.242 562.437 152.87 562.503C153.5 562.569 153.78 562.637 153.769 562.634C153.756 562.631 153.392 562.543 152.769 562.279C152.138 562.011 151.243 561.563 150.204 560.852L172.791 527.84ZM150.111 522.38V482.38C143.978 482.38 137.733 482.763 131.414 483.465L135.831 523.22L140.248 562.975C144.009 562.557 147.284 562.38 150.111 562.38V522.38ZM135.831 523.22L133.612 483.282C127.717 483.609 122.054 484.122 116.734 484.882L122.391 524.48L128.048 564.078C130.568 563.718 133.865 563.391 138.05 563.158L135.831 523.22ZM122.391 524.48H82.391V695H122.391H162.391V524.48H122.391ZM122.391 695V655H59.811V695V735H122.391V695ZM305.455 688.28L283.787 721.903L284.219 722.181L284.657 722.448L305.455 688.28ZM271.435 419.06L265.074 379.569L231.435 384.987V419.06H271.435ZM334.015 408.98H374.015V362.021L327.654 369.489L334.015 408.98ZM334.015 474.08H294.015V514.08H334.015V474.08ZM409.195 474.08H449.195V434.08H409.195V474.08ZM409.195 526.16V566.16H449.195V526.16H409.195ZM334.015 526.16V486.16H294.015V526.16H334.015ZM336.955 626.96L298.555 638.16L298.62 638.384L298.688 638.606L336.955 626.96ZM347.455 642.08L324.036 674.507L324.643 674.946L325.267 675.362L347.455 642.08ZM389.455 645.44L395.775 684.938L396.394 684.839L397.009 684.72L389.455 645.44ZM409.195 639.98L448.555 632.854L439.974 585.451L394.955 602.6L409.195 639.98ZM418.015 688.7L433.107 725.744L463.155 713.502L457.375 681.574L418.015 688.7ZM392.815 696.68L383.391 657.806V657.806L392.815 696.68ZM358.795 700.04V660.04C340.015 660.04 330.468 656.678 326.253 654.112L305.455 688.28L284.657 722.448C306.203 735.562 332.215 740.04 358.795 740.04V700.04ZM305.455 688.28L327.123 654.657C322.059 651.394 318.836 647.378 316.715 641.367L278.995 654.68L241.276 667.993C249.234 690.542 263.651 708.926 283.787 721.903L305.455 688.28ZM278.995 654.68L316.715 641.367C313.516 632.303 311.435 620.322 311.435 604.7H271.435H231.435C231.435 627.158 234.395 648.497 241.276 667.993L278.995 654.68ZM271.435 604.7H311.435V419.06H271.435H231.435V604.7H271.435ZM271.435 419.06L277.796 458.551L340.376 448.471L334.015 408.98L327.654 369.489L265.074 379.569L271.435 419.06ZM334.015 408.98H294.015V474.08H334.015H374.015V408.98H334.015ZM334.015 474.08V514.08H409.195V474.08V434.08H334.015V474.08ZM409.195 474.08H369.195V526.16H409.195H449.195V474.08H409.195ZM409.195 526.16V486.16H334.015V526.16V566.16H409.195V526.16ZM334.015 526.16H294.015V603.86H334.015H374.015V526.16H334.015ZM334.015 603.86H294.015C294.015 615.462 295.315 627.052 298.555 638.16L336.955 626.96L375.355 615.76C374.675 613.428 374.015 609.618 374.015 603.86H334.015ZM336.955 626.96L298.688 638.606C302.97 652.675 311.31 665.316 324.036 674.507L347.455 642.08L370.875 609.653C371.971 610.445 373.041 611.511 373.905 612.754C374.748 613.968 375.107 614.936 375.222 615.314L336.955 626.96ZM347.455 642.08L325.267 675.362C339.49 684.844 355.606 687.12 368.875 687.12V647.12V607.12C367.766 607.12 366.96 607.069 366.42 607.014C365.879 606.958 365.675 606.905 365.752 606.923C365.875 606.952 367.454 607.339 369.643 608.798L347.455 642.08ZM368.875 647.12V687.12C377.824 687.12 386.799 686.374 395.775 684.938L389.455 645.44L383.136 605.942C378.112 606.746 373.367 607.12 368.875 607.12V647.12ZM389.455 645.44L397.009 684.72C406.178 682.957 415.043 680.556 423.435 677.359L409.195 639.98L394.955 602.6C391.587 603.884 387.292 605.123 381.901 606.16L389.455 645.44ZM409.195 639.98L369.835 647.106L378.655 695.826L418.015 688.7L457.375 681.574L448.555 632.854L409.195 639.98ZM418.015 688.7L402.923 651.656C397.475 653.876 391.005 655.96 383.391 657.806L392.815 696.68L402.239 735.554C413.105 732.92 423.435 729.684 433.107 725.744L418.015 688.7ZM392.815 696.68L383.391 657.806C378.214 659.061 370.254 660.04 358.795 660.04V700.04V740.04C374.216 740.04 388.937 738.779 402.239 735.554L392.815 696.68ZM426.556 695H386.556V735H426.556V695ZM426.556 485.84L413.342 448.086L386.556 457.461V485.84H426.556ZM466.036 474.92L474.714 513.967L474.976 513.909L475.237 513.847L466.036 474.92ZM533.656 470.72L528.483 510.384L529.406 510.504L530.334 510.582L533.656 470.72ZM553.396 473.24L546.543 512.648L546.681 512.673L546.82 512.696L553.396 473.24ZM570.196 477.86L609.395 485.827L615.83 454.164L586.229 441.214L570.196 477.86ZM559.696 529.52L549.995 568.326L590.565 578.468L598.895 537.487L559.696 529.52ZM539.956 525.32L531.279 564.367L531.973 564.522L532.673 564.651L539.956 525.32ZM501.316 524.06L505.504 563.84L506.379 563.748L507.25 563.617L501.316 524.06ZM489.136 526.16L477.642 487.847L449.136 496.399V526.16H489.136ZM489.136 695V735H529.136V695H489.136ZM426.556 695H466.556V485.84H426.556H386.556V695H426.556ZM426.556 485.84L439.77 523.594C449.116 520.323 460.695 517.083 474.714 513.967L466.036 474.92L457.359 435.872C441.138 439.477 426.396 443.517 413.342 448.086L426.556 485.84ZM466.036 474.92L475.237 513.847C487.127 511.037 501.061 509.46 517.276 509.46V469.46V429.46C495.972 429.46 475.745 431.523 456.835 435.993L466.036 474.92ZM517.276 469.46V509.46C519.448 509.46 523.068 509.678 528.483 510.384L533.656 470.72L538.83 431.056C531.364 430.082 524.065 429.46 517.276 429.46V469.46ZM533.656 470.72L530.334 510.582C535.908 511.046 541.309 511.738 546.543 512.648L553.396 473.24L560.25 433.832C552.604 432.502 544.844 431.514 536.978 430.858L533.656 470.72ZM553.396 473.24L546.82 512.696C551.455 513.468 553.63 514.273 554.163 514.506L570.196 477.86L586.229 441.214C577.802 437.527 568.777 435.252 559.972 433.784L553.396 473.24ZM570.196 477.86L530.998 469.893L520.498 521.553L559.696 529.52L598.895 537.487L609.395 485.827L570.196 477.86ZM559.696 529.52L569.398 490.714C562.786 489.061 555.363 487.493 547.24 485.989L539.956 525.32L532.673 564.651C539.669 565.947 545.407 567.179 549.995 568.326L559.696 529.52ZM539.956 525.32L548.633 486.273C537.906 483.889 526.85 482.8 515.596 482.8V522.8V562.8C521.703 562.8 526.886 563.391 531.279 564.367L539.956 525.32ZM515.596 522.8V482.8C509.031 482.8 502.164 483.485 495.383 484.503L501.316 524.06L507.25 563.617C511.668 562.955 514.322 562.8 515.596 562.8V522.8ZM501.316 524.06L497.129 484.28C491.008 484.924 484.028 485.931 477.642 487.847L489.136 526.16L500.63 564.473C500.007 564.66 500.048 564.601 501.078 564.423C502.032 564.259 503.475 564.054 505.504 563.84L501.316 524.06ZM489.136 526.16H449.136V695H489.136H529.136V526.16H489.136ZM489.136 695V655H426.556V695V735H489.136V695ZM606.362 685.76L586.032 720.208L586.154 720.28L586.277 720.352L606.362 685.76ZM568.142 644.6L532.136 662.022V662.022L568.142 644.6ZM570.662 521.12L536.171 500.863L536.12 500.949L536.071 501.035L570.662 521.12ZM610.142 481.64L629.253 516.779L629.359 516.722L629.465 516.663L610.142 481.64ZM715.562 481.22L695.648 515.91L695.891 516.05L696.137 516.186L715.562 481.22ZM750.422 519.02L714.408 536.427L714.525 536.668L714.645 536.909L750.422 519.02ZM762.602 593.78L802.514 596.441L802.519 596.358L802.524 596.275L762.602 593.78ZM761.762 605.12V645.12H798.568L801.624 608.442L761.762 605.12ZM619.802 605.12V565.12H575.219L580.036 609.442L619.802 605.12ZM637.862 635.78L614.694 668.387V668.387L637.862 635.78ZM714.302 644.18L721.369 683.551L721.759 683.481L722.147 683.403L714.302 644.18ZM741.602 636.2L781.067 629.677L772.663 578.833L725.493 599.587L741.602 636.2ZM750.002 687.02L767.891 722.797L794.278 709.604L789.467 680.497L750.002 687.02ZM717.662 696.26L710.246 656.954L709.814 657.035L709.384 657.126L717.662 696.26ZM619.802 562.28L580.267 556.198L573.178 602.28H619.802V562.28ZM702.542 562.28V602.28H744.174L742.51 560.681L702.542 562.28ZM697.922 542.12L661.239 558.069L661.239 558.069L697.922 542.12ZM684.902 526.16L660.902 558.16L661.274 558.439L661.653 558.709L684.902 526.16ZM639.122 526.16L662.061 558.929L662.217 558.82L662.372 558.709L639.122 526.16ZM626.102 541.7L662.188 558.958L662.188 558.958L626.102 541.7ZM672.302 700.88V660.88C650.534 660.88 636.035 656.735 626.448 651.168L606.362 685.76L586.277 720.352C611.409 734.945 640.87 740.88 672.302 740.88V700.88ZM606.362 685.76L626.692 651.312C616.197 645.118 609.013 637.231 604.149 627.178L568.142 644.6L532.136 662.022C544.071 686.689 562.367 706.242 586.032 720.208L606.362 685.76ZM568.142 644.6L604.149 627.178C598.673 615.861 595.542 602.463 595.542 586.22H555.542H515.542C515.542 613.097 520.812 638.619 532.136 662.022L568.142 644.6ZM555.542 586.22H595.542C595.542 565.188 599.619 550.909 605.254 541.205L570.662 521.12L536.071 501.035C521.545 526.051 515.542 555.172 515.542 586.22H555.542ZM570.662 521.12L605.154 541.377C612.309 529.194 620.453 521.565 629.253 516.779L610.142 481.64L591.031 446.501C567.911 459.075 549.736 477.766 536.171 500.863L570.662 521.12ZM610.142 481.64L629.465 516.663C640.004 510.849 650.462 508.2 661.382 508.2V468.2V428.2C636.462 428.2 612.761 434.511 590.819 446.617L610.142 481.64ZM661.382 468.2V508.2C676.822 508.2 687.717 511.357 695.648 515.91L715.562 481.22L735.477 446.53C713.168 433.723 687.942 428.2 661.382 428.2V468.2ZM715.562 481.22L696.137 516.186C703.474 520.263 709.578 526.433 714.408 536.427L750.422 519.02L786.436 501.613C775.026 478.007 757.891 458.977 734.988 446.254L715.562 481.22ZM750.422 519.02L714.645 536.909C719.513 546.644 723.022 560.947 723.022 581.6H763.022H803.022C803.022 552.413 798.131 524.996 786.199 501.131L750.422 519.02ZM763.022 581.6H723.022C723.022 584.243 722.92 587.453 722.68 591.285L762.602 593.78L802.524 596.275C802.845 591.147 803.022 586.237 803.022 581.6H763.022ZM762.602 593.78L722.691 591.119C722.422 595.15 722.158 598.704 721.9 601.798L761.762 605.12L801.624 608.442C801.926 604.816 802.222 600.81 802.514 596.441L762.602 593.78ZM761.762 605.12V565.12H619.802V605.12V645.12H761.762V605.12ZM619.802 605.12L580.036 609.442C582.682 633.786 594.813 654.261 614.694 668.387L637.862 635.78L661.031 603.173C660.394 602.721 660.069 602.402 659.937 602.261C659.813 602.129 659.803 602.094 659.832 602.144C659.862 602.194 659.846 602.185 659.802 602.048C659.755 601.902 659.646 601.512 659.568 600.798L619.802 605.12ZM637.862 635.78L614.694 668.387C634.208 682.253 657.504 687.12 680.702 687.12V647.12V607.12C668.061 607.12 662.796 604.427 661.031 603.173L637.862 635.78ZM680.702 647.12V687.12C694.47 687.12 708.037 685.944 721.369 683.551L714.302 644.18L707.236 604.809C698.727 606.336 689.895 607.12 680.702 607.12V647.12ZM714.302 644.18L722.147 683.403C734.942 680.844 747.105 677.479 757.712 672.813L741.602 636.2L725.493 599.587C722.099 601.081 716.063 603.036 706.458 604.957L714.302 644.18ZM741.602 636.2L702.138 642.723L710.538 693.543L750.002 687.02L789.467 680.497L781.067 629.677L741.602 636.2ZM750.002 687.02L732.114 651.243C730.578 652.011 724.337 654.295 710.246 656.954L717.662 696.26L725.079 735.566C740.667 732.625 755.986 728.749 767.891 722.797L750.002 687.02ZM717.662 696.26L709.384 657.126C697.687 659.6 685.349 660.88 672.302 660.88V700.88V740.88C690.616 740.88 708.517 739.08 725.941 735.394L717.662 696.26ZM619.802 562.28V602.28H702.542V562.28V522.28H619.802V562.28ZM702.542 562.28L742.51 560.681C742.032 548.724 739.374 537.139 734.605 526.171L697.922 542.12L661.239 558.069C662.071 559.981 662.492 561.836 662.574 563.879L702.542 562.28ZM697.922 542.12L734.605 526.171C728.828 512.883 719.752 501.896 708.152 493.611L684.902 526.16L661.653 558.709C661.764 558.789 661.791 558.818 661.759 558.789C661.727 558.759 661.659 558.69 661.573 558.585C661.486 558.479 661.407 558.367 661.342 558.259C661.277 558.152 661.245 558.082 661.239 558.069L697.922 542.12ZM684.902 526.16L708.902 494.16C694.269 483.185 677.325 479.86 662.222 479.86V519.86V559.86C664.105 559.86 664.681 560.074 664.326 559.976C663.884 559.853 662.541 559.389 660.902 558.16L684.902 526.16ZM662.222 519.86V479.86C646.99 479.86 630.399 483.235 615.873 493.611L639.122 526.16L662.372 558.709C661.753 559.152 661.179 559.47 660.707 559.689C660.241 559.905 659.929 559.999 659.832 560.026C659.668 560.07 660.356 559.86 662.222 559.86V519.86ZM639.122 526.16L616.184 493.391C604.684 501.441 595.933 512.072 590.017 524.442L626.102 541.7L662.188 558.958C662.279 558.766 662.341 558.665 662.361 558.634C662.381 558.604 662.371 558.623 662.328 558.674C662.308 558.698 662.283 558.726 662.255 558.755C662.227 558.785 662.197 558.813 662.169 558.84C662.14 558.866 662.115 558.887 662.094 558.904C662.074 558.92 662.062 558.928 662.061 558.929L639.122 526.16ZM626.102 541.7L590.017 524.442C585.192 534.53 581.964 545.168 580.267 556.198L619.802 562.28L659.337 568.362C659.88 564.832 660.852 561.75 662.188 558.958L626.102 541.7ZM818.036 685.76L797.705 720.208L797.828 720.28L797.95 720.352L818.036 685.76ZM779.816 644.6L743.809 662.022V662.022L779.816 644.6ZM782.336 521.12L747.844 500.863L747.794 500.949L747.744 501.035L782.336 521.12ZM821.816 481.64L840.927 516.779L841.033 516.722L841.139 516.663L821.816 481.64ZM927.236 481.22L907.321 515.91L907.564 516.05L907.81 516.186L927.236 481.22ZM962.096 519.02L926.082 536.427L926.198 536.668L926.319 536.909L962.096 519.02ZM974.276 593.78L1014.19 596.441L1014.19 596.358L1014.2 596.275L974.276 593.78ZM973.436 605.12V645.12H1010.24L1013.3 608.442L973.436 605.12ZM831.476 605.12V565.12H786.892L791.71 609.442L831.476 605.12ZM849.536 635.78L826.367 668.387V668.387L849.536 635.78ZM925.976 644.18L933.042 683.551L933.432 683.481L933.82 683.403L925.976 644.18ZM953.276 636.2L992.74 629.677L984.336 578.833L937.166 599.587L953.276 636.2ZM961.676 687.02L979.564 722.797L1005.95 709.604L1001.14 680.497L961.676 687.02ZM929.336 696.26L921.919 656.954L921.487 657.035L921.057 657.126L929.336 696.26ZM831.476 562.28L791.941 556.198L784.851 602.28H831.476V562.28ZM914.216 562.28V602.28H955.848L954.184 560.681L914.216 562.28ZM909.596 542.12L872.913 558.069L872.913 558.069L909.596 542.12ZM896.576 526.16L872.576 558.16L872.948 558.439L873.326 558.709L896.576 526.16ZM850.796 526.16L873.734 558.929L873.89 558.82L874.045 558.709L850.796 526.16ZM837.776 541.7L873.861 558.958V558.958L837.776 541.7ZM883.976 700.88V660.88C862.207 660.88 847.709 656.735 838.121 651.168L818.036 685.76L797.95 720.352C823.083 734.945 852.544 740.88 883.976 740.88V700.88ZM818.036 685.76L838.366 651.312C827.87 645.118 820.687 637.231 815.822 627.178L779.816 644.6L743.809 662.022C755.745 686.689 774.041 706.242 797.705 720.208L818.036 685.76ZM779.816 644.6L815.822 627.178C810.346 615.861 807.216 602.463 807.216 586.22H767.216H727.216C727.216 613.097 732.485 638.619 743.809 662.022L779.816 644.6ZM767.216 586.22H807.216C807.216 565.188 811.293 550.909 816.927 541.205L782.336 521.12L747.744 501.035C733.218 526.051 727.216 555.172 727.216 586.22H767.216ZM782.336 521.12L816.827 541.377C823.982 529.194 832.126 521.565 840.927 516.779L821.816 481.64L802.705 446.501C779.585 459.075 761.409 477.766 747.844 500.863L782.336 521.12ZM821.816 481.64L841.139 516.663C851.677 510.849 862.136 508.2 873.056 508.2V468.2V428.2C848.135 428.2 824.434 434.511 802.492 446.617L821.816 481.64ZM873.056 468.2V508.2C888.496 508.2 899.39 511.357 907.321 515.91L927.236 481.22L947.15 446.53C924.841 433.723 899.615 428.2 873.056 428.2V468.2ZM927.236 481.22L907.81 516.186C915.147 520.263 921.252 526.433 926.082 536.427L962.096 519.02L998.11 501.613C986.7 478.007 969.564 458.977 946.661 446.254L927.236 481.22ZM962.096 519.02L926.319 536.909C931.186 546.644 934.696 560.947 934.696 581.6H974.696H1014.7C1014.7 552.413 1009.8 524.996 997.873 501.131L962.096 519.02ZM974.696 581.6H934.696C934.696 584.243 934.593 587.453 934.354 591.285L974.276 593.78L1014.2 596.275C1014.52 591.147 1014.7 586.237 1014.7 581.6H974.696ZM974.276 593.78L934.364 591.119C934.095 595.15 933.832 598.704 933.574 601.798L973.436 605.12L1013.3 608.442C1013.6 604.816 1013.9 600.81 1014.19 596.441L974.276 593.78ZM973.436 605.12V565.12H831.476V605.12V645.12H973.436V605.12ZM831.476 605.12L791.71 609.442C794.356 633.786 806.486 654.261 826.367 668.387L849.536 635.78L872.704 603.173C872.067 602.721 871.742 602.402 871.611 602.261C871.486 602.129 871.477 602.094 871.506 602.144C871.535 602.194 871.519 602.185 871.475 602.048C871.428 601.902 871.319 601.512 871.241 600.798L831.476 605.12ZM849.536 635.78L826.367 668.387C845.882 682.253 869.177 687.12 892.376 687.12V647.12V607.12C879.734 607.12 874.469 604.427 872.704 603.173L849.536 635.78ZM892.376 647.12V687.12C906.143 687.12 919.711 685.944 933.042 683.551L925.976 644.18L918.909 604.809C910.401 606.336 901.568 607.12 892.376 607.12V647.12ZM925.976 644.18L933.82 683.403C946.615 680.844 958.779 677.479 969.385 672.813L953.276 636.2L937.166 599.587C933.773 601.081 927.736 603.036 918.131 604.957L925.976 644.18ZM953.276 636.2L913.811 642.723L922.211 693.543L961.676 687.02L1001.14 680.497L992.74 629.677L953.276 636.2ZM961.676 687.02L943.787 651.243C942.252 652.011 936.011 654.295 921.919 656.954L929.336 696.26L936.752 735.566C952.34 732.625 967.659 728.749 979.564 722.797L961.676 687.02ZM929.336 696.26L921.057 657.126C909.36 659.6 897.022 660.88 883.976 660.88V700.88V740.88C902.289 740.88 920.191 739.08 937.614 735.394L929.336 696.26ZM831.476 562.28V602.28H914.216V562.28V522.28H831.476V562.28ZM914.216 562.28L954.184 560.681C953.705 548.724 951.047 537.139 946.278 526.171L909.596 542.12L872.913 558.069C873.744 559.981 874.166 561.836 874.248 563.879L914.216 562.28ZM909.596 542.12L946.278 526.171C940.501 512.883 931.425 501.896 919.825 493.611L896.576 526.16L873.326 558.709C873.437 558.789 873.464 558.818 873.433 558.789C873.4 558.759 873.332 558.69 873.246 558.585C873.16 558.479 873.081 558.367 873.015 558.259C872.95 558.152 872.919 558.082 872.913 558.069L909.596 542.12ZM896.576 526.16L920.576 494.16C905.942 483.185 888.998 479.86 873.896 479.86V519.86V559.86C875.779 559.86 876.354 560.074 876 559.976C875.557 559.853 874.214 559.389 872.576 558.16L896.576 526.16ZM873.896 519.86V479.86C858.663 479.86 842.072 483.235 827.546 493.611L850.796 526.16L874.045 558.709C873.426 559.152 872.852 559.47 872.38 559.689C871.914 559.905 871.602 559.999 871.505 560.026C871.341 560.07 872.03 559.86 873.896 559.86V519.86ZM850.796 526.16L827.857 493.391C816.357 501.441 807.606 512.072 801.69 524.442L837.776 541.7L873.861 558.958C873.953 558.766 874.015 558.665 874.035 558.634C874.054 558.604 874.044 558.623 874.001 558.674C873.981 558.698 873.957 558.726 873.928 558.755C873.9 558.785 873.871 558.813 873.842 558.84C873.813 558.866 873.788 558.887 873.768 558.904C873.747 558.92 873.736 558.928 873.734 558.929L850.796 526.16ZM837.776 541.7L801.69 524.442C796.866 534.53 793.638 545.168 791.941 556.198L831.476 562.28L871.01 568.362C871.554 564.832 872.526 561.75 873.861 558.958L837.776 541.7Z" fill="#2E0053" mask="url(#path-12-outside-1_3373_23)"/>
<path d="M512.454 347C603.832 347 677.909 421.076 677.909 512.454C677.909 603.832 603.832 677.909 512.454 677.909C421.076 677.909 347 603.832 347 512.454C347 421.076 421.076 347 512.454 347Z" stroke="#8AFF80" stroke-width="10"/>
<path d="M512 710C621.352 710 710 621.352 710 512C710 402.648 621.352 314 512 314C402.648 314 314 402.648 314 512C314 621.352 402.648 710 512 710Z" stroke="#8AFF80" stroke-width="10"/>
<path d="M511.906 378C547.888 378 579.024 390.168 605.055 414.442C632.356 438.007 645.812 470.718 645.812 511.906C645.812 553.141 632.33 586.315 605.049 610.84L605.04 610.848C578.986 634.157 547.854 645.812 511.906 645.812C475.961 645.812 444.383 634.161 417.395 610.909L417.319 610.844L417.246 610.776C390.958 586.235 378 553.08 378 511.906C378 470.738 390.958 438.019 417.324 414.43C444.302 390.18 475.903 378 511.906 378Z" stroke="#AA43FF" stroke-width="10"/>
<path d="M602.818 511.909C602.818 562.117 562.117 602.818 511.909 602.818C461.701 602.818 421 562.117 421 511.909C421 461.701 461.701 421 511.909 421C562.117 421 602.818 461.701 602.818 511.909Z" stroke="#8C00FF" stroke-width="10"/>
<path d="M557.909 512.455C557.909 537.558 537.558 557.909 512.455 557.909C487.351 557.909 467 537.558 467 512.455C467 487.351 487.351 467 512.455 467C537.558 467 557.909 487.351 557.909 512.455Z" fill="#AA43FF"/>
<path d="M557.909 512.455C557.909 537.558 537.558 557.909 512.455 557.909C487.351 557.909 467 537.558 467 512.455C467 487.351 487.351 467 512.455 467C537.558 467 557.909 487.351 557.909 512.455Z" fill="#AA43FF"/>
<circle cx="512" cy="512" r="25" fill="#8AFF80"/>
<circle cx="512" cy="512" r="25" fill="black"/>
<circle cx="512" cy="508.455" r="210" fill="#8AFF80"/>
<circle cx="512" cy="508.455" r="210" fill="black" fill-opacity="0.5"/>
<path d="M669.5 508.455C669.5 595.439 598.985 665.955 512 665.955C425.015 665.955 354.5 595.439 354.5 508.455C354.5 421.47 425.015 350.955 512 350.955C598.985 350.955 669.5 421.47 669.5 508.455Z" fill="#8AFF80"/>
<path d="M759.727 819.818C759.727 870.026 719.026 910.727 668.818 910.727C618.611 910.727 577.909 870.026 577.909 819.818C577.909 769.611 618.611 728.909 668.818 728.909C719.026 728.909 759.727 769.611 759.727 819.818Z" fill="#22003D"/>
<path d="M759.727 819.818C759.727 870.026 719.026 910.727 668.818 910.727C618.611 910.727 577.909 870.026 577.909 819.818C577.909 769.611 618.611 728.909 668.818 728.909C719.026 728.909 759.727 769.611 759.727 819.818Z" fill="#22003D"/>
<path d="M714.273 819.818C714.273 844.922 693.922 865.273 668.818 865.273C643.714 865.273 623.364 844.922 623.364 819.818C623.364 794.714 643.714 774.364 668.818 774.364C693.922 774.364 714.273 794.714 714.273 819.818Z" fill="#8AFF80"/>
<path d="M714.273 819.818C714.273 844.922 693.922 865.273 668.818 865.273C643.714 865.273 623.364 844.922 623.364 819.818C623.364 794.714 643.714 774.364 668.818 774.364C693.922 774.364 714.273 794.714 714.273 819.818Z" fill="#8AFF80"/>
<path d="M448.364 819.818C448.364 870.026 407.662 910.727 357.454 910.727C307.247 910.727 266.545 870.026 266.545 819.818C266.545 769.611 307.247 728.909 357.454 728.909C407.662 728.909 448.364 769.611 448.364 819.818Z" fill="#22003D"/>
<path d="M448.364 819.818C448.364 870.026 407.662 910.727 357.454 910.727C307.247 910.727 266.545 870.026 266.545 819.818C266.545 769.611 307.247 728.909 357.454 728.909C407.662 728.909 448.364 769.611 448.364 819.818Z" fill="#22003D"/>
<path d="M402.909 819.818C402.909 844.922 382.558 865.273 357.455 865.273C332.351 865.273 312 844.922 312 819.818C312 794.714 332.351 774.364 357.455 774.364C382.558 774.364 402.909 794.714 402.909 819.818Z" fill="#8AFF80"/>
<path d="M402.909 819.818C402.909 844.922 382.558 865.273 357.455 865.273C332.351 865.273 312 844.922 312 819.818C312 794.714 332.351 774.364 357.455 774.364C382.558 774.364 402.909 794.714 402.909 819.818Z" fill="#8AFF80"/>
<path d="M773.364 508.455C773.364 558.662 732.662 599.364 682.455 599.364C632.247 599.364 591.545 558.662 591.545 508.455C591.545 458.247 632.247 417.545 682.455 417.545C732.662 417.545 773.364 458.247 773.364 508.455Z" fill="#22003D"/>
<path d="M773.364 508.455C773.364 558.662 732.662 599.364 682.455 599.364C632.247 599.364 591.545 558.662 591.545 508.455C591.545 458.247 632.247 417.545 682.455 417.545C732.662 417.545 773.364 458.247 773.364 508.455Z" fill="#22003D"/>
<path d="M727.909 508.455C727.909 533.558 707.558 553.909 682.455 553.909C657.351 553.909 637 533.558 637 508.455C637 483.351 657.351 463 682.455 463C707.558 463 727.909 483.351 727.909 508.455Z" fill="#AA43FF"/>
<path d="M727.909 508.455C727.909 533.558 707.558 553.909 682.455 553.909C657.351 553.909 637 533.558 637 508.455C637 483.351 657.351 463 682.455 463C707.558 463 727.909 483.351 727.909 508.455Z" fill="#AA43FF"/>
<path d="M602.909 508.455C602.909 558.662 562.208 599.364 512 599.364C461.792 599.364 421.091 558.662 421.091 508.455C421.091 458.247 461.792 417.545 512 417.545C562.208 417.545 602.909 458.247 602.909 508.455Z" fill="#22003D"/>
<path d="M602.909 508.455C602.909 558.662 562.208 599.364 512 599.364C461.792 599.364 421.091 558.662 421.091 508.455C421.091 458.247 461.792 417.545 512 417.545C562.208 417.545 602.909 458.247 602.909 508.455Z" fill="#22003D"/>
<path d="M557.455 508.455C557.455 533.558 537.104 553.909 512 553.909C486.896 553.909 466.546 533.558 466.546 508.455C466.546 483.351 486.896 463 512 463C537.104 463 557.455 483.351 557.455 508.455Z" fill="#AA43FF"/>
<path d="M557.455 508.455C557.455 533.558 537.104 553.909 512 553.909C486.896 553.909 466.546 533.558 466.546 508.455C466.546 483.351 486.896 463 512 463C537.104 463 557.455 483.351 557.455 508.455Z" fill="#AA43FF"/>
<path d="M448.364 508.455C448.364 558.662 407.662 599.364 357.455 599.364C307.247 599.364 266.545 558.662 266.545 508.455C266.545 458.247 307.247 417.545 357.455 417.545C407.662 417.545 448.364 458.247 448.364 508.455Z" fill="#22003D"/>
<path d="M448.364 508.455C448.364 558.662 407.662 599.364 357.455 599.364C307.247 599.364 266.545 558.662 266.545 508.455C266.545 458.247 307.247 417.545 357.455 417.545C407.662 417.545 448.364 458.247 448.364 508.455Z" fill="#22003D"/>
<path d="M402.909 508.455C402.909 533.558 382.558 553.909 357.455 553.909C332.351 553.909 312 533.558 312 508.455C312 483.351 332.351 463 357.455 463C382.558 463 402.909 483.351 402.909 508.455Z" fill="#8AFF80"/>
<path d="M402.909 508.455C402.909 533.558 382.558 553.909 357.455 553.909C332.351 553.909 312 533.558 312 508.455C312 483.351 332.351 463 357.455 463C382.558 463 402.909 483.351 402.909 508.455Z" fill="#8AFF80"/>
<path d="M759.727 203.909C759.727 254.117 719.026 294.818 668.818 294.818C618.611 294.818 577.909 254.117 577.909 203.909C577.909 153.701 618.611 113 668.818 113C719.026 113 759.727 153.701 759.727 203.909Z" fill="#22003D"/>
<path d="M759.727 203.909C759.727 254.117 719.026 294.818 668.818 294.818C618.611 294.818 577.909 254.117 577.909 203.909C577.909 153.701 618.611 113 668.818 113C719.026 113 759.727 153.701 759.727 203.909Z" fill="#22003D"/>
<path d="M714.273 203.909C714.273 229.013 693.922 249.364 668.818 249.364C643.714 249.364 623.364 229.013 623.364 203.909C623.364 178.805 643.714 158.455 668.818 158.455C693.922 158.455 714.273 178.805 714.273 203.909Z" fill="#AA43FF"/>
<path d="M714.273 203.909C714.273 229.013 693.922 249.364 668.818 249.364C643.714 249.364 623.364 229.013 623.364 203.909C623.364 178.805 643.714 158.455 668.818 158.455C693.922 158.455 714.273 178.805 714.273 203.909Z" fill="#AA43FF"/>
<path d="M448.364 203.909C448.364 254.117 407.662 294.818 357.455 294.818C307.247 294.818 266.545 254.117 266.545 203.909C266.545 153.701 307.247 113 357.455 113C407.662 113 448.364 153.701 448.364 203.909Z" fill="#22003D"/>
<path d="M448.364 203.909C448.364 254.117 407.662 294.818 357.455 294.818C307.247 294.818 266.545 254.117 266.545 203.909C266.545 153.701 307.247 113 357.455 113C407.662 113 448.364 153.701 448.364 203.909Z" fill="#22003D"/>
<path d="M402.909 203.909C402.909 229.013 382.558 249.364 357.455 249.364C332.351 249.364 312 229.013 312 203.909C312 178.805 332.351 158.455 357.455 158.455C382.558 158.455 402.909 178.805 402.909 203.909Z" fill="#8AFF80"/>
<path d="M402.909 203.909C402.909 229.013 382.558 249.364 357.455 249.364C332.351 249.364 312 229.013 312 203.909C312 178.805 332.351 158.455 357.455 158.455C382.558 158.455 402.909 178.805 402.909 203.909Z" fill="#8AFF80"/>
<mask id="path-36-outside-2_3373_23" maskUnits="userSpaceOnUse" x="19" y="358.455" width="996" height="379" fill="black">
<rect fill="white" x="19" y="358.455" width="996" height="379"/>
<path d="M59.8109 691.455V478.095C70.451 475.015 84.171 472.215 100.971 469.695C117.771 466.895 135.411 465.495 153.891 465.495C179.091 465.495 198.691 469.835 212.691 478.515C226.691 486.915 236.491 498.675 242.091 513.795C247.691 528.915 250.491 546.555 250.491 566.715V691.455H187.911V574.275C187.911 560.835 186.791 550.055 184.551 541.935C182.311 533.815 178.391 527.935 172.791 524.295C167.471 520.655 159.911 518.835 150.111 518.835C145.631 518.835 140.871 519.115 135.831 519.675C130.791 519.955 126.311 520.375 122.391 520.935V691.455H59.8109Z"/>
<path d="M358.795 696.495C336.115 696.495 318.335 692.575 305.455 684.735C292.855 676.615 284.035 665.415 278.995 651.135C273.955 636.855 271.435 620.195 271.435 601.155V415.515L334.015 405.435V470.535H409.195V522.615H334.015V600.315C334.015 608.995 334.995 616.695 336.955 623.415C338.915 629.855 342.415 634.895 347.455 638.535C352.495 641.895 359.635 643.575 368.875 643.575C375.595 643.575 382.455 643.015 389.455 641.895C396.735 640.495 403.315 638.675 409.195 636.435L418.015 685.155C410.455 688.235 402.055 690.895 392.815 693.135C383.575 695.375 372.235 696.495 358.795 696.495ZM426.556 691.455V482.295C437.756 478.375 450.916 474.735 466.036 471.375C481.436 467.735 498.516 465.915 517.276 465.915C521.756 465.915 527.216 466.335 533.656 467.175C540.376 467.735 546.956 468.575 553.396 469.695C560.116 470.815 565.716 472.355 570.196 474.315L559.696 525.975C554.096 524.575 547.516 523.175 539.956 521.775C532.396 520.095 524.276 519.255 515.596 519.255C511.676 519.255 506.916 519.675 501.316 520.515C495.996 521.075 491.936 521.775 489.136 522.615V691.455H426.556ZM672.302 697.335C645.702 697.335 623.722 692.295 606.362 682.215C589.282 672.135 576.542 658.415 568.142 641.055C559.742 623.695 555.542 604.235 555.542 582.675C555.542 556.635 560.582 534.935 570.662 517.575C581.022 499.935 594.182 486.775 610.142 478.095C626.382 469.135 643.462 464.655 661.382 464.655C682.382 464.655 700.442 468.995 715.562 477.675C730.682 486.075 742.302 498.675 750.422 515.475C758.822 532.275 763.022 553.135 763.022 578.055C763.022 581.695 762.882 585.755 762.602 590.235C762.322 594.435 762.042 598.215 761.762 601.575H619.802C621.202 614.455 627.222 624.675 637.862 632.235C648.502 639.795 662.782 643.575 680.702 643.575C692.182 643.575 703.382 642.595 714.302 640.635C725.502 638.395 734.602 635.735 741.602 632.655L750.002 683.475C743.282 686.835 732.502 689.915 717.662 692.715C703.102 695.795 687.982 697.335 672.302 697.335ZM619.802 558.735H702.542C702.262 551.735 700.722 545.015 697.922 538.575C695.122 532.135 690.782 526.815 684.902 522.615C679.302 518.415 671.742 516.315 662.222 516.315C652.702 516.315 645.002 518.415 639.122 522.615C633.522 526.535 629.182 531.715 626.102 538.155C623.022 544.595 620.922 551.455 619.802 558.735ZM883.976 697.335C857.376 697.335 835.396 692.295 818.036 682.215C800.956 672.135 788.216 658.415 779.816 641.055C771.416 623.695 767.216 604.235 767.216 582.675C767.216 556.635 772.256 534.935 782.336 517.575C792.696 499.935 805.856 486.775 821.816 478.095C838.056 469.135 855.136 464.655 873.056 464.655C894.056 464.655 912.116 468.995 927.236 477.675C942.356 486.075 953.976 498.675 962.096 515.475C970.496 532.275 974.696 553.135 974.696 578.055C974.696 581.695 974.556 585.755 974.276 590.235C973.996 594.435 973.716 598.215 973.436 601.575H831.476C832.876 614.455 838.896 624.675 849.536 632.235C860.176 639.795 874.456 643.575 892.376 643.575C903.856 643.575 915.056 642.595 925.976 640.635C937.176 638.395 946.276 635.735 953.276 632.655L961.676 683.475C954.956 686.835 944.176 689.915 929.336 692.715C914.776 695.795 899.656 697.335 883.976 697.335ZM831.476 558.735H914.216C913.936 551.735 912.396 545.015 909.596 538.575C906.796 532.135 902.456 526.815 896.576 522.615C890.976 518.415 883.416 516.315 873.896 516.315C864.376 516.315 856.676 518.415 850.796 522.615C845.196 526.535 840.856 531.715 837.776 538.155C834.696 544.595 832.596 551.455 831.476 558.735Z"/>
</mask>
<path d="M59.8109 691.455V478.095C70.451 475.015 84.171 472.215 100.971 469.695C117.771 466.895 135.411 465.495 153.891 465.495C179.091 465.495 198.691 469.835 212.691 478.515C226.691 486.915 236.491 498.675 242.091 513.795C247.691 528.915 250.491 546.555 250.491 566.715V691.455H187.911V574.275C187.911 560.835 186.791 550.055 184.551 541.935C182.311 533.815 178.391 527.935 172.791 524.295C167.471 520.655 159.911 518.835 150.111 518.835C145.631 518.835 140.871 519.115 135.831 519.675C130.791 519.955 126.311 520.375 122.391 520.935V691.455H59.8109Z" fill="white"/>
<path d="M358.795 696.495C336.115 696.495 318.335 692.575 305.455 684.735C292.855 676.615 284.035 665.415 278.995 651.135C273.955 636.855 271.435 620.195 271.435 601.155V415.515L334.015 405.435V470.535H409.195V522.615H334.015V600.315C334.015 608.995 334.995 616.695 336.955 623.415C338.915 629.855 342.415 634.895 347.455 638.535C352.495 641.895 359.635 643.575 368.875 643.575C375.595 643.575 382.455 643.015 389.455 641.895C396.735 640.495 403.315 638.675 409.195 636.435L418.015 685.155C410.455 688.235 402.055 690.895 392.815 693.135C383.575 695.375 372.235 696.495 358.795 696.495ZM426.556 691.455V482.295C437.756 478.375 450.916 474.735 466.036 471.375C481.436 467.735 498.516 465.915 517.276 465.915C521.756 465.915 527.216 466.335 533.656 467.175C540.376 467.735 546.956 468.575 553.396 469.695C560.116 470.815 565.716 472.355 570.196 474.315L559.696 525.975C554.096 524.575 547.516 523.175 539.956 521.775C532.396 520.095 524.276 519.255 515.596 519.255C511.676 519.255 506.916 519.675 501.316 520.515C495.996 521.075 491.936 521.775 489.136 522.615V691.455H426.556ZM672.302 697.335C645.702 697.335 623.722 692.295 606.362 682.215C589.282 672.135 576.542 658.415 568.142 641.055C559.742 623.695 555.542 604.235 555.542 582.675C555.542 556.635 560.582 534.935 570.662 517.575C581.022 499.935 594.182 486.775 610.142 478.095C626.382 469.135 643.462 464.655 661.382 464.655C682.382 464.655 700.442 468.995 715.562 477.675C730.682 486.075 742.302 498.675 750.422 515.475C758.822 532.275 763.022 553.135 763.022 578.055C763.022 581.695 762.882 585.755 762.602 590.235C762.322 594.435 762.042 598.215 761.762 601.575H619.802C621.202 614.455 627.222 624.675 637.862 632.235C648.502 639.795 662.782 643.575 680.702 643.575C692.182 643.575 703.382 642.595 714.302 640.635C725.502 638.395 734.602 635.735 741.602 632.655L750.002 683.475C743.282 686.835 732.502 689.915 717.662 692.715C703.102 695.795 687.982 697.335 672.302 697.335ZM619.802 558.735H702.542C702.262 551.735 700.722 545.015 697.922 538.575C695.122 532.135 690.782 526.815 684.902 522.615C679.302 518.415 671.742 516.315 662.222 516.315C652.702 516.315 645.002 518.415 639.122 522.615C633.522 526.535 629.182 531.715 626.102 538.155C623.022 544.595 620.922 551.455 619.802 558.735ZM883.976 697.335C857.376 697.335 835.396 692.295 818.036 682.215C800.956 672.135 788.216 658.415 779.816 641.055C771.416 623.695 767.216 604.235 767.216 582.675C767.216 556.635 772.256 534.935 782.336 517.575C792.696 499.935 805.856 486.775 821.816 478.095C838.056 469.135 855.136 464.655 873.056 464.655C894.056 464.655 912.116 468.995 927.236 477.675C942.356 486.075 953.976 498.675 962.096 515.475C970.496 532.275 974.696 553.135 974.696 578.055C974.696 581.695 974.556 585.755 974.276 590.235C973.996 594.435 973.716 598.215 973.436 601.575H831.476C832.876 614.455 838.896 624.675 849.536 632.235C860.176 639.795 874.456 643.575 892.376 643.575C903.856 643.575 915.056 642.595 925.976 640.635C937.176 638.395 946.276 635.735 953.276 632.655L961.676 683.475C954.956 686.835 944.176 689.915 929.336 692.715C914.776 695.795 899.656 697.335 883.976 697.335ZM831.476 558.735H914.216C913.936 551.735 912.396 545.015 909.596 538.575C906.796 532.135 902.456 526.815 896.576 522.615C890.976 518.415 883.416 516.315 873.896 516.315C864.376 516.315 856.676 518.415 850.796 522.615C845.196 526.535 840.856 531.715 837.776 538.155C834.696 544.595 832.596 551.455 831.476 558.735Z" fill="#CFFFCB"/>
<path d="M59.811 691.455H19.811V731.455H59.811V691.455ZM59.811 478.095L48.6886 439.672L19.811 448.031V478.095H59.811ZM100.971 469.695L106.905 509.252L107.226 509.204L107.547 509.15L100.971 469.695ZM212.691 478.515L191.613 512.511L191.861 512.664L192.111 512.814L212.691 478.515ZM242.091 513.795L204.581 527.687L204.581 527.687L242.091 513.795ZM250.491 691.455V731.455H290.491V691.455H250.491ZM187.911 691.455H147.911V731.455H187.911V691.455ZM184.551 541.935L145.991 552.572L145.991 552.572L184.551 541.935ZM172.791 524.295L150.204 557.307L150.594 557.574L150.991 557.832L172.791 524.295ZM135.831 519.675L138.05 559.613L139.152 559.552L140.248 559.43L135.831 519.675ZM122.391 520.935L116.734 481.337L82.391 486.243V520.935H122.391ZM122.391 691.455V731.455H162.391V691.455H122.391ZM59.811 691.455H99.811V478.095H59.811H19.811V691.455H59.811ZM59.811 478.095L70.9333 516.517C79.227 514.116 91.0386 511.632 106.905 509.252L100.971 469.695L95.0374 430.137C77.3033 432.797 61.6749 435.913 48.6886 439.672L59.811 478.095ZM100.971 469.695L107.547 509.15C121.999 506.742 137.43 505.495 153.891 505.495V465.495V425.495C133.392 425.495 113.543 427.048 94.395 430.239L100.971 469.695ZM153.891 465.495V505.495C175.291 505.495 186.456 509.313 191.613 512.511L212.691 478.515L233.769 444.518C210.926 430.356 182.891 425.495 153.891 425.495V465.495ZM212.691 478.515L192.111 512.814C198.419 516.599 202.183 521.213 204.581 527.687L242.091 513.795L279.601 499.902C270.799 476.137 254.963 457.23 233.271 444.215L212.691 478.515ZM242.091 513.795L204.581 527.687C208.18 537.404 210.491 550.156 210.491 566.715H250.491H290.491C290.491 542.953 287.202 520.425 279.601 499.902L242.091 513.795ZM250.491 566.715H210.491V691.455H250.491H290.491V566.715H250.491ZM250.491 691.455V651.455H187.911V691.455V731.455H250.491V691.455ZM187.911 691.455H227.911V574.275H187.911H147.911V691.455H187.911ZM187.911 574.275H227.911C227.911 559.103 226.7 544.309 223.111 531.297L184.551 541.935L145.991 552.572C146.882 555.801 147.911 562.566 147.911 574.275H187.911ZM184.551 541.935L223.111 531.297C218.973 516.298 210.361 501.008 194.59 490.757L172.791 524.295L150.991 557.832C148.971 556.519 147.527 554.94 146.649 553.623C145.842 552.413 145.793 551.853 145.991 552.572L184.551 541.935ZM172.791 524.295L195.378 491.282C180.771 481.288 164.047 478.835 150.111 478.835V518.835V558.835C151.334 558.835 152.242 558.892 152.87 558.958C153.5 559.024 153.78 559.091 153.769 559.089C153.756 559.085 153.392 558.997 152.769 558.733C152.138 558.466 151.243 558.018 150.204 557.307L172.791 524.295ZM150.111 518.835V478.835C143.978 478.835 137.733 479.217 131.414 479.919L135.831 519.675L140.248 559.43C144.009 559.012 147.284 558.835 150.111 558.835V518.835ZM135.831 519.675L133.612 479.736C127.717 480.064 122.054 480.577 116.734 481.337L122.391 520.935L128.048 560.533C130.568 560.173 133.865 559.845 138.05 559.613L135.831 519.675ZM122.391 520.935H82.391V691.455H122.391H162.391V520.935H122.391ZM122.391 691.455V651.455H59.811V691.455V731.455H122.391V691.455ZM305.455 684.735L283.787 718.357L284.219 718.636L284.657 718.903L305.455 684.735ZM271.435 415.515L265.074 376.024L231.435 381.442V415.515H271.435ZM334.015 405.435H374.015V358.476L327.654 365.944L334.015 405.435ZM334.015 470.535H294.015V510.535H334.015V470.535ZM409.195 470.535H449.195V430.535H409.195V470.535ZM409.195 522.615V562.615H449.195V522.615H409.195ZM334.015 522.615V482.615H294.015V522.615H334.015ZM336.955 623.415L298.555 634.615L298.62 634.838L298.688 635.061L336.955 623.415ZM347.455 638.535L324.036 670.962L324.643 671.401L325.267 671.817L347.455 638.535ZM389.455 641.895L395.775 681.392L396.394 681.293L397.009 681.175L389.455 641.895ZM409.195 636.435L448.555 629.309L439.974 581.905L394.955 599.055L409.195 636.435ZM418.015 685.155L433.107 722.198L463.155 709.956L457.375 678.029L418.015 685.155ZM392.815 693.135L383.391 654.261V654.261L392.815 693.135ZM358.795 696.495V656.495C340.015 656.495 330.468 653.132 326.253 650.567L305.455 684.735L284.657 718.903C306.203 732.017 332.215 736.495 358.795 736.495V696.495ZM305.455 684.735L327.123 651.112C322.059 647.848 318.836 643.833 316.715 637.822L278.995 651.135L241.276 664.447C249.234 686.997 263.651 705.381 283.787 718.357L305.455 684.735ZM278.995 651.135L316.715 637.822C313.516 628.757 311.435 616.776 311.435 601.155H271.435H231.435C231.435 623.613 234.395 644.952 241.276 664.447L278.995 651.135ZM271.435 601.155H311.435V415.515H271.435H231.435V601.155H271.435ZM271.435 415.515L277.796 455.006L340.376 444.926L334.015 405.435L327.654 365.944L265.074 376.024L271.435 415.515ZM334.015 405.435H294.015V470.535H334.015H374.015V405.435H334.015ZM334.015 470.535V510.535H409.195V470.535V430.535H334.015V470.535ZM409.195 470.535H369.195V522.615H409.195H449.195V470.535H409.195ZM409.195 522.615V482.615H334.015V522.615V562.615H409.195V522.615ZM334.015 522.615H294.015V600.315H334.015H374.015V522.615H334.015ZM334.015 600.315H294.015C294.015 611.916 295.315 623.507 298.555 634.615L336.955 623.415L375.355 612.215C374.675 609.882 374.015 606.073 374.015 600.315H334.015ZM336.955 623.415L298.688 635.061C302.97 649.129 311.31 661.771 324.036 670.962L347.455 638.535L370.875 606.107C371.971 606.899 373.041 607.965 373.905 609.209C374.748 610.422 375.107 611.39 375.222 611.768L336.955 623.415ZM347.455 638.535L325.267 671.817C339.49 681.298 355.606 683.575 368.875 683.575V643.575V603.575C367.766 603.575 366.96 603.524 366.42 603.468C365.879 603.413 365.675 603.36 365.752 603.378C365.875 603.407 367.454 603.793 369.643 605.253L347.455 638.535ZM368.875 643.575V683.575C377.824 683.575 386.799 682.828 395.775 681.392L389.455 641.895L383.136 602.397C378.112 603.201 373.367 603.575 368.875 603.575V643.575ZM389.455 641.895L397.009 681.175C406.178 679.412 415.043 677.011 423.435 673.814L409.195 636.435L394.955 599.055C391.587 600.338 387.292 601.578 381.901 602.614L389.455 641.895ZM409.195 636.435L369.835 643.56L378.655 692.28L418.015 685.155L457.375 678.029L448.555 629.309L409.195 636.435ZM418.015 685.155L402.923 648.111C397.475 650.331 391.005 652.415 383.391 654.261L392.815 693.135L402.239 732.009C413.105 729.374 423.435 726.139 433.107 722.198L418.015 685.155ZM392.815 693.135L383.391 654.261C378.214 655.516 370.254 656.495 358.795 656.495V696.495V736.495C374.216 736.495 388.937 735.233 402.239 732.009L392.815 693.135ZM426.556 691.455H386.556V731.455H426.556V691.455ZM426.556 482.295L413.342 444.54L386.556 453.915V482.295H426.556ZM466.036 471.375L474.714 510.422L474.976 510.364L475.237 510.302L466.036 471.375ZM533.656 467.175L528.483 506.839L529.406 506.959L530.334 507.036L533.656 467.175ZM553.396 469.695L546.543 509.103L546.681 509.127L546.82 509.15L553.396 469.695ZM570.196 474.315L609.395 482.282L615.83 450.619L586.229 437.668L570.196 474.315ZM559.696 525.975L549.995 564.78L590.565 574.923L598.895 533.942L559.696 525.975ZM539.956 521.775L531.279 560.822L531.973 560.976L532.673 561.106L539.956 521.775ZM501.316 520.515L505.504 560.295L506.379 560.203L507.25 560.072L501.316 520.515ZM489.136 522.615L477.642 484.302L449.136 492.853V522.615H489.136ZM489.136 691.455V731.455H529.136V691.455H489.136ZM426.556 691.455H466.556V482.295H426.556H386.556V691.455H426.556ZM426.556 482.295L439.77 520.049C449.116 516.778 460.695 513.537 474.714 510.422L466.036 471.375L457.359 432.327C441.138 435.932 426.396 439.971 413.342 444.54L426.556 482.295ZM466.036 471.375L475.237 510.302C487.127 507.492 501.061 505.915 517.276 505.915V465.915V425.915C495.972 425.915 475.745 427.978 456.835 432.447L466.036 471.375ZM517.276 465.915V505.915C519.448 505.915 523.068 506.132 528.483 506.839L533.656 467.175L538.83 427.511C531.364 426.537 524.065 425.915 517.276 425.915V465.915ZM533.656 467.175L530.334 507.036C535.908 507.501 541.309 508.193 546.543 509.103L553.396 469.695L560.25 430.286C552.604 428.956 544.844 427.968 536.978 427.313L533.656 467.175ZM553.396 469.695L546.82 509.15C551.455 509.923 553.63 510.728 554.163 510.961L570.196 474.315L586.229 437.668C577.802 433.982 568.777 431.706 559.972 430.239L553.396 469.695ZM570.196 474.315L530.998 466.347L520.498 518.007L559.696 525.975L598.895 533.942L609.395 482.282L570.196 474.315ZM559.696 525.975L569.398 487.169C562.786 485.516 555.363 483.948 547.24 482.443L539.956 521.775L532.673 561.106C539.669 562.401 545.407 563.633 549.995 564.78L559.696 525.975ZM539.956 521.775L548.633 482.727C537.906 480.343 526.85 479.255 515.596 479.255V519.255V559.255C521.703 559.255 526.886 559.846 531.279 560.822L539.956 521.775ZM515.596 519.255V479.255C509.031 479.255 502.164 479.94 495.383 480.957L501.316 520.515L507.25 560.072C511.668 559.409 514.322 559.255 515.596 559.255V519.255ZM501.316 520.515L497.129 480.734C491.008 481.379 484.028 482.386 477.642 484.302L489.136 522.615L500.63 560.928C500.007 561.115 500.048 561.056 501.078 560.878C502.032 560.713 503.475 560.508 505.504 560.295L501.316 520.515ZM489.136 522.615H449.136V691.455H489.136H529.136V522.615H489.136ZM489.136 691.455V651.455H426.556V691.455V731.455H489.136V691.455ZM606.362 682.215L586.032 716.663L586.154 716.735L586.277 716.806L606.362 682.215ZM568.142 641.055L532.136 658.477V658.477L568.142 641.055ZM570.662 517.575L536.171 497.318L536.12 497.403L536.071 497.489L570.662 517.575ZM610.142 478.095L629.253 513.234L629.359 513.176L629.465 513.118L610.142 478.095ZM715.562 477.675L695.648 512.365L695.891 512.505L696.137 512.641L715.562 477.675ZM750.422 515.475L714.408 532.881L714.525 533.123L714.645 533.363L750.422 515.475ZM762.602 590.235L802.514 592.895L802.519 592.813L802.524 592.73L762.602 590.235ZM761.762 601.575V641.575H798.568L801.624 604.896L761.762 601.575ZM619.802 601.575V561.575H575.219L580.036 605.897L619.802 601.575ZM637.862 632.235L614.694 664.842V664.842L637.862 632.235ZM714.302 640.635L721.369 680.005L721.759 679.935L722.147 679.858L714.302 640.635ZM741.602 632.655L781.067 626.132L772.663 575.287L725.493 596.042L741.602 632.655ZM750.002 683.475L767.891 719.252L794.278 706.058L789.467 676.952L750.002 683.475ZM717.662 692.715L710.246 653.408L709.814 653.49L709.384 653.581L717.662 692.715ZM619.802 558.735L580.267 552.652L573.178 598.735H619.802V558.735ZM702.542 558.735V598.735H744.174L742.51 557.136L702.542 558.735ZM697.922 538.575L661.239 554.524L661.239 554.524L697.922 538.575ZM684.902 522.615L660.902 554.615L661.274 554.894L661.653 555.164L684.902 522.615ZM639.122 522.615L662.061 555.384L662.217 555.275L662.372 555.164L639.122 522.615ZM626.102 538.155L662.188 555.413L662.188 555.413L626.102 538.155ZM672.302 697.335V657.335C650.534 657.335 636.035 653.19 626.448 647.623L606.362 682.215L586.277 716.806C611.409 731.399 640.87 737.335 672.302 737.335V697.335ZM606.362 682.215L626.692 647.766C616.197 641.572 609.013 633.686 604.149 623.632L568.142 641.055L532.136 658.477C544.071 683.144 562.367 702.697 586.032 716.663L606.362 682.215ZM568.142 641.055L604.149 623.632C598.673 612.315 595.542 598.918 595.542 582.675H555.542H515.542C515.542 609.551 520.812 635.074 532.136 658.477L568.142 641.055ZM555.542 582.675H595.542C595.542 561.642 599.619 547.364 605.254 537.66L570.662 517.575L536.071 497.489C521.545 522.506 515.542 551.627 515.542 582.675H555.542ZM570.662 517.575L605.154 537.831C612.309 525.649 620.453 518.02 629.253 513.234L610.142 478.095L591.031 442.955C567.911 455.529 549.736 474.221 536.171 497.318L570.662 517.575ZM610.142 478.095L629.465 513.118C640.004 507.303 650.462 504.655 661.382 504.655V464.655V424.655C636.462 424.655 612.761 430.966 590.819 443.071L610.142 478.095ZM661.382 464.655V504.655C676.822 504.655 687.717 507.812 695.648 512.365L715.562 477.675L735.477 442.984C713.168 430.177 687.942 424.655 661.382 424.655V464.655ZM715.562 477.675L696.137 512.641C703.474 516.717 709.578 522.888 714.408 532.881L750.422 515.475L786.436 498.068C775.026 474.461 757.891 455.432 734.988 442.708L715.562 477.675ZM750.422 515.475L714.645 533.363C719.513 543.099 723.022 557.401 723.022 578.055H763.022H803.022C803.022 548.868 798.131 521.45 786.199 497.586L750.422 515.475ZM763.022 578.055H723.022C723.022 580.697 722.92 583.908 722.68 587.74L762.602 590.235L802.524 592.73C802.845 587.602 803.022 582.692 803.022 578.055H763.022ZM762.602 590.235L722.691 587.574C722.422 591.605 722.158 595.159 721.9 598.253L761.762 601.575L801.624 604.896C801.926 601.27 802.222 597.264 802.514 592.895L762.602 590.235ZM761.762 601.575V561.575H619.802V601.575V641.575H761.762V601.575ZM619.802 601.575L580.036 605.897C582.682 630.241 594.813 650.716 614.694 664.842L637.862 632.235L661.031 599.627C660.394 599.175 660.069 598.856 659.937 598.716C659.813 598.583 659.803 598.549 659.832 598.598C659.862 598.648 659.846 598.64 659.802 598.503C659.755 598.356 659.646 597.966 659.568 597.252L619.802 601.575ZM637.862 632.235L614.694 664.842C634.208 678.707 657.504 683.575 680.702 683.575V643.575V603.575C668.061 603.575 662.796 600.882 661.031 599.627L637.862 632.235ZM680.702 643.575V683.575C694.47 683.575 708.037 682.398 721.369 680.005L714.302 640.635L707.236 601.264C698.727 602.791 689.895 603.575 680.702 603.575V643.575ZM714.302 640.635L722.147 679.858C734.942 677.299 747.105 673.934 757.712 669.267L741.602 632.655L725.493 596.042C722.099 597.535 716.063 599.49 706.458 601.411L714.302 640.635ZM741.602 632.655L702.138 639.178L710.538 689.998L750.002 683.475L789.467 676.952L781.067 626.132L741.602 632.655ZM750.002 683.475L732.114 647.698C730.578 648.465 724.337 650.749 710.246 653.408L717.662 692.715L725.079 732.021C740.667 729.08 755.986 725.204 767.891 719.252L750.002 683.475ZM717.662 692.715L709.384 653.581C697.687 656.055 685.349 657.335 672.302 657.335V697.335V737.335C690.616 737.335 708.517 735.534 725.941 731.849L717.662 692.715ZM619.802 558.735V598.735H702.542V558.735V518.735H619.802V558.735ZM702.542 558.735L742.51 557.136C742.032 545.178 739.374 533.593 734.605 522.626L697.922 538.575L661.239 554.524C662.071 556.436 662.492 558.291 662.574 560.333L702.542 558.735ZM697.922 538.575L734.605 522.626C728.828 509.338 719.752 498.351 708.152 490.065L684.902 522.615L661.653 555.164C661.764 555.243 661.791 555.273 661.759 555.243C661.727 555.213 661.659 555.145 661.573 555.04C661.486 554.934 661.407 554.821 661.342 554.714C661.277 554.607 661.245 554.537 661.239 554.524L697.922 538.575ZM684.902 522.615L708.902 490.615C694.269 479.639 677.325 476.315 662.222 476.315V516.315V556.315C664.105 556.315 664.681 556.529 664.326 556.43C663.884 556.307 662.541 555.843 660.902 554.615L684.902 522.615ZM662.222 516.315V476.315C646.99 476.315 630.399 479.69 615.873 490.065L639.122 522.615L662.372 555.164C661.753 555.606 661.179 555.925 660.707 556.144C660.241 556.36 659.929 556.454 659.832 556.48C659.668 556.525 660.356 556.315 662.222 556.315V516.315ZM639.122 522.615L616.184 489.845C604.684 497.895 595.933 508.526 590.017 520.896L626.102 538.155L662.188 555.413C662.279 555.221 662.341 555.12 662.361 555.088C662.381 555.058 662.371 555.077 662.328 555.128C662.308 555.153 662.283 555.18 662.255 555.21C662.227 555.239 662.197 555.268 662.169 555.294C662.14 555.321 662.115 555.342 662.094 555.358C662.074 555.374 662.062 555.383 662.061 555.384L639.122 522.615ZM626.102 538.155L590.017 520.896C585.192 530.984 581.964 541.622 580.267 552.652L619.802 558.735L659.337 564.817C659.88 561.287 660.852 558.205 662.188 555.413L626.102 538.155ZM818.036 682.215L797.705 716.663L797.828 716.735L797.95 716.806L818.036 682.215ZM779.816 641.055L743.809 658.477V658.477L779.816 641.055ZM782.336 517.575L747.844 497.318L747.794 497.403L747.744 497.489L782.336 517.575ZM821.816 478.095L840.927 513.234L841.033 513.176L841.139 513.118L821.816 478.095ZM927.236 477.675L907.321 512.365L907.564 512.505L907.81 512.641L927.236 477.675ZM962.096 515.475L926.082 532.881L926.198 533.123L926.319 533.363L962.096 515.475ZM974.276 590.235L1014.19 592.895L1014.19 592.813L1014.2 592.73L974.276 590.235ZM973.436 601.575V641.575H1010.24L1013.3 604.896L973.436 601.575ZM831.476 601.575V561.575H786.892L791.71 605.897L831.476 601.575ZM849.536 632.235L826.367 664.842V664.842L849.536 632.235ZM925.976 640.635L933.042 680.005L933.432 679.935L933.82 679.858L925.976 640.635ZM953.276 632.655L992.74 626.132L984.336 575.287L937.166 596.042L953.276 632.655ZM961.676 683.475L979.564 719.252L1005.95 706.058L1001.14 676.952L961.676 683.475ZM929.336 692.715L921.919 653.408L921.487 653.49L921.057 653.581L929.336 692.715ZM831.476 558.735L791.941 552.652L784.851 598.735H831.476V558.735ZM914.216 558.735V598.735H955.848L954.184 557.136L914.216 558.735ZM909.596 538.575L872.913 554.524L872.913 554.524L909.596 538.575ZM896.576 522.615L872.576 554.615L872.948 554.894L873.326 555.164L896.576 522.615ZM850.796 522.615L873.734 555.384L873.89 555.275L874.045 555.164L850.796 522.615ZM837.776 538.155L873.861 555.413V555.413L837.776 538.155ZM883.976 697.335V657.335C862.207 657.335 847.709 653.19 838.121 647.623L818.036 682.215L797.95 716.806C823.083 731.399 852.544 737.335 883.976 737.335V697.335ZM818.036 682.215L838.366 647.766C827.87 641.572 820.687 633.686 815.822 623.632L779.816 641.055L743.809 658.477C755.745 683.144 774.041 702.697 797.705 716.663L818.036 682.215ZM779.816 641.055L815.822 623.632C810.346 612.315 807.216 598.918 807.216 582.675H767.216H727.216C727.216 609.551 732.485 635.074 743.809 658.477L779.816 641.055ZM767.216 582.675H807.216C807.216 561.642 811.293 547.364 816.927 537.66L782.336 517.575L747.744 497.489C733.218 522.506 727.216 551.627 727.216 582.675H767.216ZM782.336 517.575L816.827 537.831C823.982 525.649 832.126 518.02 840.927 513.234L821.816 478.095L802.705 442.955C779.585 455.529 761.409 474.221 747.844 497.318L782.336 517.575ZM821.816 478.095L841.139 513.118C851.677 507.303 862.136 504.655 873.056 504.655V464.655V424.655C848.135 424.655 824.434 430.966 802.492 443.071L821.816 478.095ZM873.056 464.655V504.655C888.496 504.655 899.39 507.812 907.321 512.365L927.236 477.675L947.15 442.984C924.841 430.177 899.615 424.655 873.056 424.655V464.655ZM927.236 477.675L907.81 512.641C915.147 516.717 921.252 522.888 926.082 532.881L962.096 515.475L998.11 498.068C986.7 474.461 969.564 455.432 946.661 442.708L927.236 477.675ZM962.096 515.475L926.319 533.363C931.186 543.099 934.696 557.401 934.696 578.055H974.696H1014.7C1014.7 548.868 1009.8 521.45 997.873 497.586L962.096 515.475ZM974.696 578.055H934.696C934.696 580.697 934.593 583.908 934.354 587.74L974.276 590.235L1014.2 592.73C1014.52 587.602 1014.7 582.692 1014.7 578.055H974.696ZM974.276 590.235L934.364 587.574C934.095 591.605 933.832 595.159 933.574 598.253L973.436 601.575L1013.3 604.896C1013.6 601.27 1013.9 597.264 1014.19 592.895L974.276 590.235ZM973.436 601.575V561.575H831.476V601.575V641.575H973.436V601.575ZM831.476 601.575L791.71 605.897C794.356 630.241 806.486 650.716 826.367 664.842L849.536 632.235L872.704 599.627C872.067 599.175 871.742 598.856 871.611 598.716C871.486 598.583 871.477 598.549 871.506 598.598C871.535 598.648 871.519 598.64 871.475 598.503C871.428 598.356 871.319 597.966 871.241 597.252L831.476 601.575ZM849.536 632.235L826.367 664.842C845.882 678.707 869.177 683.575 892.376 683.575V643.575V603.575C879.734 603.575 874.469 600.882 872.704 599.627L849.536 632.235ZM892.376 643.575V683.575C906.143 683.575 919.711 682.398 933.042 680.005L925.976 640.635L918.909 601.264C910.401 602.791 901.568 603.575 892.376 603.575V643.575ZM925.976 640.635L933.82 679.858C946.615 677.299 958.779 673.934 969.385 669.267L953.276 632.655L937.166 596.042C933.773 597.535 927.736 599.49 918.131 601.411L925.976 640.635ZM953.276 632.655L913.811 639.178L922.211 689.998L961.676 683.475L1001.14 676.952L992.74 626.132L953.276 632.655ZM961.676 683.475L943.787 647.698C942.252 648.465 936.011 650.749 921.919 653.408L929.336 692.715L936.752 732.021C952.34 729.08 967.659 725.204 979.564 719.252L961.676 683.475ZM929.336 692.715L921.057 653.581C909.36 656.055 897.022 657.335 883.976 657.335V697.335V737.335C902.289 737.335 920.191 735.534 937.614 731.849L929.336 692.715ZM831.476 558.735V598.735H914.216V558.735V518.735H831.476V558.735ZM914.216 558.735L954.184 557.136C953.705 545.178 951.047 533.593 946.278 522.626L909.596 538.575L872.913 554.524C873.744 556.436 874.166 558.291 874.248 560.333L914.216 558.735ZM909.596 538.575L946.278 522.626C940.501 509.338 931.425 498.351 919.825 490.065L896.576 522.615L873.326 555.164C873.437 555.243 873.464 555.273 873.433 555.243C873.4 555.213 873.332 555.145 873.246 555.04C873.16 554.934 873.081 554.821 873.015 554.714C872.95 554.607 872.919 554.537 872.913 554.524L909.596 538.575ZM896.576 522.615L920.576 490.615C905.942 479.639 888.998 476.315 873.896 476.315V516.315V556.315C875.779 556.315 876.354 556.529 876 556.43C875.557 556.307 874.214 555.843 872.576 554.615L896.576 522.615ZM873.896 516.315V476.315C858.663 476.315 842.072 479.69 827.546 490.065L850.796 522.615L874.045 555.164C873.426 555.606 872.852 555.925 872.38 556.144C871.914 556.36 871.602 556.454 871.505 556.48C871.341 556.525 872.03 556.315 873.896 556.315V516.315ZM850.796 522.615L827.857 489.845C816.357 497.895 807.606 508.526 801.69 520.896L837.776 538.155L873.861 555.413C873.953 555.221 874.015 555.12 874.035 555.088C874.054 555.058 874.044 555.077 874.001 555.128C873.981 555.153 873.957 555.18 873.928 555.21C873.9 555.239 873.871 555.268 873.842 555.294C873.813 555.321 873.788 555.342 873.768 555.358C873.747 555.374 873.736 555.383 873.734 555.384L850.796 522.615ZM837.776 538.155L801.69 520.896C796.866 530.984 793.638 541.622 791.941 552.652L831.476 558.735L871.01 564.817C871.554 561.287 872.526 558.205 873.861 555.413L837.776 538.155Z" fill="#250043" mask="url(#path-36-outside-2_3373_23)"/>
</g>
<defs>
<linearGradient id="paint0_linear_3373_23" x1="512" y1="0" x2="512" y2="1024" gradientUnits="userSpaceOnUse">
<stop offset="0.182692" stop-color="#8AFF80"/>
<stop offset="0.793269" stop-color="#181825"/>
</linearGradient>
<radialGradient id="paint1_radial_3373_23" cx="0" cy="0" r="1" gradientUnits="userSpaceOnUse" gradientTransform="translate(512 512) scale(443.438 443.438)">
<stop stop-color="#313244"/>
<stop offset="0.8" stop-color="#181825"/>
<stop offset="1" stop-color="#1E1E2E"/>
</radialGradient>
<radialGradient id="paint2_radial_3373_23" cx="0" cy="0" r="1" gradientUnits="userSpaceOnUse" gradientTransform="translate(512 512) rotate(90) scale(375)">
<stop offset="0.956731" stop-color="#353689"/>
<stop offset="1" stop-color="#5D5FEF"/>
</radialGradient>
</defs>
</svg>
