<svg width="1024" height="1024" viewBox="0 0 1024 1024" fill="none" xmlns="http://www.w3.org/2000/svg">
<mask id="mask0_3327_33" style="mask-type:alpha" maskUnits="userSpaceOnUse" x="0" y="0" width="1024" height="1024">
<rect width="1024" height="1024" fill="url(#paint0_linear_3327_33)"/>
</mask>
<g mask="url(#mask0_3327_33)">
<rect width="1024" height="1024" rx="80" fill="url(#paint1_linear_3327_33)"/>
<path d="M512 952C393.348 952 289.528 913.667 200.539 837C114.846 757 72 648.667 72 512C72 375.333 114.846 268.667 200.539 192C289.528 112 393.348 72 512 72C630.652 72 732.824 112 818.517 192C907.506 268.667 952 375.333 952 512C952 648.667 907.506 757 818.517 837C732.824 913.667 630.652 952 512 952Z" fill="#5D5FEF" fill-opacity="0.2"/>
<path d="M512 952C755.005 952 952 755.005 952 512C952 268.995 755.005 72 512 72C268.995 72 72 268.995 72 512C72 755.005 268.995 952 512 952Z" fill="url(#paint2_radial_3327_33)" fill-opacity="0.5"/>
<path d="M512 72.2002C754.895 72.2002 951.8 269.105 951.8 512C951.8 754.895 754.895 951.8 512 951.8C269.105 951.8 72.2002 754.895 72.2002 512C72.2002 269.105 269.105 72.2002 512 72.2002Z" stroke="#5D5FEF" stroke-opacity="0.5" stroke-width="0.4"/>
<path opacity="0.9" d="M510.085 917.232C733.997 917.232 915.513 735.716 915.513 511.804C915.513 287.892 733.997 106.375 510.085 106.375C286.173 106.375 104.656 287.892 104.656 511.804C104.656 735.716 286.173 917.232 510.085 917.232Z" stroke="#A6E3A1" stroke-width="0.8"/>
<path d="M510.743 134.1C718.757 134.1 887.386 302.729 887.386 510.743C887.386 718.757 718.757 887.386 510.743 887.386C302.729 887.386 134.1 718.757 134.1 510.743C134.1 302.729 302.729 134.1 510.743 134.1Z" stroke="#5D5FEF"/>
<path d="M510.281 205.703C683.241 205.703 823.453 345.915 823.453 518.875C823.453 691.835 683.241 832.047 510.281 832.047C337.321 832.047 197.109 691.835 197.109 518.875C197.109 345.915 337.321 205.703 510.281 205.703Z" stroke="#5D5FEF"/>
<path d="M512 710C621.352 710 710 621.353 710 512C710 402.648 621.352 314 512 314C402.648 314 314 402.648 314 512C314 621.353 402.648 710 512 710Z" stroke="#8AFF80" stroke-width="0.5"/>
<path opacity="0.9" d="M512.502 742.456C640.451 742.456 744.175 638.733 744.175 510.783C744.175 382.833 640.451 279.109 512.502 279.109C384.552 279.109 280.828 382.833 280.828 510.783C280.828 638.733 384.552 742.456 512.502 742.456Z" stroke="#A6E3A1"/>
<path d="M512 769.812C442.478 769.812 381.645 747.352 329.504 702.43C279.293 655.555 254.188 592.078 254.188 512C254.188 431.922 279.293 369.422 329.504 324.5C381.645 277.625 442.478 254.188 512 254.188C581.522 254.188 641.389 277.625 691.6 324.5C743.742 369.422 769.812 431.922 769.812 512C769.812 592.078 743.742 655.555 691.6 702.43C641.389 747.352 581.522 769.812 512 769.812Z" fill="#8AFF80" fill-opacity="0.4"/>
<path d="M503.406 640.906C468.645 640.906 438.229 629.676 412.158 607.215C387.053 583.777 374.5 552.039 374.5 512C374.5 471.961 387.053 440.711 412.158 418.25C438.229 394.812 468.645 383.094 503.406 383.094C538.167 383.094 568.101 394.812 593.206 418.25C619.277 440.711 632.312 471.961 632.312 512C632.312 552.039 619.277 583.777 593.206 607.215C568.101 629.676 538.167 640.906 503.406 640.906Z" fill="#181825" fill-opacity="0.8"/>
<mask id="path-13-outside-1_3327_33" maskUnits="userSpaceOnUse" x="19" y="362" width="996" height="379" fill="black">
<rect fill="white" x="19" y="362" width="996" height="379"/>
<path d="M59.8109 695V481.64C70.451 478.56 84.171 475.76 100.971 473.24C117.771 470.44 135.411 469.04 153.891 469.04C179.091 469.04 198.691 473.38 212.691 482.06C226.691 490.46 236.491 502.22 242.091 517.34C247.691 532.46 250.491 550.1 250.491 570.26V695H187.911V577.82C187.911 564.38 186.791 553.6 184.551 545.48C182.311 537.36 178.391 531.48 172.791 527.84C167.471 524.2 159.911 522.38 150.111 522.38C145.631 522.38 140.871 522.66 135.831 523.22C130.791 523.5 126.311 523.92 122.391 524.48V695H59.8109Z"/>
<path d="M358.795 700.04C336.115 700.04 318.335 696.12 305.455 688.28C292.855 680.16 284.035 668.96 278.995 654.68C273.955 640.4 271.435 623.74 271.435 604.7V419.06L334.015 408.98V474.08H409.195V526.16H334.015V603.86C334.015 612.54 334.995 620.24 336.955 626.96C338.915 633.4 342.415 638.44 347.455 642.08C352.495 645.44 359.635 647.12 368.875 647.12C375.595 647.12 382.455 646.56 389.455 645.44C396.735 644.04 403.315 642.22 409.195 639.98L418.015 688.7C410.455 691.78 402.055 694.44 392.815 696.68C383.575 698.92 372.235 700.04 358.795 700.04ZM426.556 695V485.84C437.756 481.92 450.916 478.28 466.036 474.92C481.436 471.28 498.516 469.46 517.276 469.46C521.756 469.46 527.216 469.88 533.656 470.72C540.376 471.28 546.956 472.12 553.396 473.24C560.116 474.36 565.716 475.9 570.196 477.86L559.696 529.52C554.096 528.12 547.516 526.72 539.956 525.32C532.396 523.64 524.276 522.8 515.596 522.8C511.676 522.8 506.916 523.22 501.316 524.06C495.996 524.62 491.936 525.32 489.136 526.16V695H426.556ZM672.302 700.88C645.702 700.88 623.722 695.84 606.362 685.76C589.282 675.68 576.542 661.96 568.142 644.6C559.742 627.24 555.542 607.78 555.542 586.22C555.542 560.18 560.582 538.48 570.662 521.12C581.022 503.48 594.182 490.32 610.142 481.64C626.382 472.68 643.462 468.2 661.382 468.2C682.382 468.2 700.442 472.54 715.562 481.22C730.682 489.62 742.302 502.22 750.422 519.02C758.822 535.82 763.022 556.68 763.022 581.6C763.022 585.24 762.882 589.3 762.602 593.78C762.322 597.98 762.042 601.76 761.762 605.12H619.802C621.202 618 627.222 628.22 637.862 635.78C648.502 643.34 662.782 647.12 680.702 647.12C692.182 647.12 703.382 646.14 714.302 644.18C725.502 641.94 734.602 639.28 741.602 636.2L750.002 687.02C743.282 690.38 732.502 693.46 717.662 696.26C703.102 699.34 687.982 700.88 672.302 700.88ZM619.802 562.28H702.542C702.262 555.28 700.722 548.56 697.922 542.12C695.122 535.68 690.782 530.36 684.902 526.16C679.302 521.96 671.742 519.86 662.222 519.86C652.702 519.86 645.002 521.96 639.122 526.16C633.522 530.08 629.182 535.26 626.102 541.7C623.022 548.14 620.922 555 619.802 562.28ZM883.976 700.88C857.376 700.88 835.396 695.84 818.036 685.76C800.956 675.68 788.216 661.96 779.816 644.6C771.416 627.24 767.216 607.78 767.216 586.22C767.216 560.18 772.256 538.48 782.336 521.12C792.696 503.48 805.856 490.32 821.816 481.64C838.056 472.68 855.136 468.2 873.056 468.2C894.056 468.2 912.116 472.54 927.236 481.22C942.356 489.62 953.976 502.22 962.096 519.02C970.496 535.82 974.696 556.68 974.696 581.6C974.696 585.24 974.556 589.3 974.276 593.78C973.996 597.98 973.716 601.76 973.436 605.12H831.476C832.876 618 838.896 628.22 849.536 635.78C860.176 643.34 874.456 647.12 892.376 647.12C903.856 647.12 915.056 646.14 925.976 644.18C937.176 641.94 946.276 639.28 953.276 636.2L961.676 687.02C954.956 690.38 944.176 693.46 929.336 696.26C914.776 699.34 899.656 700.88 883.976 700.88ZM831.476 562.28H914.216C913.936 555.28 912.396 548.56 909.596 542.12C906.796 535.68 902.456 530.36 896.576 526.16C890.976 521.96 883.416 519.86 873.896 519.86C864.376 519.86 856.676 521.96 850.796 526.16C845.196 530.08 840.856 535.26 837.776 541.7C834.696 548.14 832.596 555 831.476 562.28Z"/>
</mask>
<path d="M59.8109 695V481.64C70.451 478.56 84.171 475.76 100.971 473.24C117.771 470.44 135.411 469.04 153.891 469.04C179.091 469.04 198.691 473.38 212.691 482.06C226.691 490.46 236.491 502.22 242.091 517.34C247.691 532.46 250.491 550.1 250.491 570.26V695H187.911V577.82C187.911 564.38 186.791 553.6 184.551 545.48C182.311 537.36 178.391 531.48 172.791 527.84C167.471 524.2 159.911 522.38 150.111 522.38C145.631 522.38 140.871 522.66 135.831 523.22C130.791 523.5 126.311 523.92 122.391 524.48V695H59.8109Z" fill="white"/>
<path d="M358.795 700.04C336.115 700.04 318.335 696.12 305.455 688.28C292.855 680.16 284.035 668.96 278.995 654.68C273.955 640.4 271.435 623.74 271.435 604.7V419.06L334.015 408.98V474.08H409.195V526.16H334.015V603.86C334.015 612.54 334.995 620.24 336.955 626.96C338.915 633.4 342.415 638.44 347.455 642.08C352.495 645.44 359.635 647.12 368.875 647.12C375.595 647.12 382.455 646.56 389.455 645.44C396.735 644.04 403.315 642.22 409.195 639.98L418.015 688.7C410.455 691.78 402.055 694.44 392.815 696.68C383.575 698.92 372.235 700.04 358.795 700.04ZM426.556 695V485.84C437.756 481.92 450.916 478.28 466.036 474.92C481.436 471.28 498.516 469.46 517.276 469.46C521.756 469.46 527.216 469.88 533.656 470.72C540.376 471.28 546.956 472.12 553.396 473.24C560.116 474.36 565.716 475.9 570.196 477.86L559.696 529.52C554.096 528.12 547.516 526.72 539.956 525.32C532.396 523.64 524.276 522.8 515.596 522.8C511.676 522.8 506.916 523.22 501.316 524.06C495.996 524.62 491.936 525.32 489.136 526.16V695H426.556ZM672.302 700.88C645.702 700.88 623.722 695.84 606.362 685.76C589.282 675.68 576.542 661.96 568.142 644.6C559.742 627.24 555.542 607.78 555.542 586.22C555.542 560.18 560.582 538.48 570.662 521.12C581.022 503.48 594.182 490.32 610.142 481.64C626.382 472.68 643.462 468.2 661.382 468.2C682.382 468.2 700.442 472.54 715.562 481.22C730.682 489.62 742.302 502.22 750.422 519.02C758.822 535.82 763.022 556.68 763.022 581.6C763.022 585.24 762.882 589.3 762.602 593.78C762.322 597.98 762.042 601.76 761.762 605.12H619.802C621.202 618 627.222 628.22 637.862 635.78C648.502 643.34 662.782 647.12 680.702 647.12C692.182 647.12 703.382 646.14 714.302 644.18C725.502 641.94 734.602 639.28 741.602 636.2L750.002 687.02C743.282 690.38 732.502 693.46 717.662 696.26C703.102 699.34 687.982 700.88 672.302 700.88ZM619.802 562.28H702.542C702.262 555.28 700.722 548.56 697.922 542.12C695.122 535.68 690.782 530.36 684.902 526.16C679.302 521.96 671.742 519.86 662.222 519.86C652.702 519.86 645.002 521.96 639.122 526.16C633.522 530.08 629.182 535.26 626.102 541.7C623.022 548.14 620.922 555 619.802 562.28ZM883.976 700.88C857.376 700.88 835.396 695.84 818.036 685.76C800.956 675.68 788.216 661.96 779.816 644.6C771.416 627.24 767.216 607.78 767.216 586.22C767.216 560.18 772.256 538.48 782.336 521.12C792.696 503.48 805.856 490.32 821.816 481.64C838.056 472.68 855.136 468.2 873.056 468.2C894.056 468.2 912.116 472.54 927.236 481.22C942.356 489.62 953.976 502.22 962.096 519.02C970.496 535.82 974.696 556.68 974.696 581.6C974.696 585.24 974.556 589.3 974.276 593.78C973.996 597.98 973.716 601.76 973.436 605.12H831.476C832.876 618 838.896 628.22 849.536 635.78C860.176 643.34 874.456 647.12 892.376 647.12C903.856 647.12 915.056 646.14 925.976 644.18C937.176 641.94 946.276 639.28 953.276 636.2L961.676 687.02C954.956 690.38 944.176 693.46 929.336 696.26C914.776 699.34 899.656 700.88 883.976 700.88ZM831.476 562.28H914.216C913.936 555.28 912.396 548.56 909.596 542.12C906.796 535.68 902.456 530.36 896.576 526.16C890.976 521.96 883.416 519.86 873.896 519.86C864.376 519.86 856.676 521.96 850.796 526.16C845.196 530.08 840.856 535.26 837.776 541.7C834.696 548.14 832.596 555 831.476 562.28Z" fill="#CFFFCB"/>
<path d="M59.811 695H19.811V735H59.811V695ZM59.811 481.64L48.6886 443.217L19.811 451.577V481.64H59.811ZM100.971 473.24L106.905 512.797L107.226 512.749L107.547 512.696L100.971 473.24ZM212.691 482.06L191.613 516.056L191.861 516.21L192.111 516.36L212.691 482.06ZM242.091 517.34L204.581 531.233L204.581 531.233L242.091 517.34ZM250.491 695V735H290.491V695H250.491ZM187.911 695H147.911V735H187.911V695ZM184.551 545.48L145.991 556.117L145.991 556.117L184.551 545.48ZM172.791 527.84L150.204 560.852L150.594 561.12L150.991 561.378L172.791 527.84ZM135.831 523.22L138.05 563.158L139.152 563.097L140.248 562.975L135.831 523.22ZM122.391 524.48L116.734 484.882L82.391 489.788V524.48H122.391ZM122.391 695V735H162.391V695H122.391ZM59.811 695H99.811V481.64H59.811H19.811V695H59.811ZM59.811 481.64L70.9333 520.063C79.227 517.662 91.0386 515.177 106.905 512.797L100.971 473.24L95.0374 433.683C77.3033 436.343 61.6749 439.458 48.6886 443.217L59.811 481.64ZM100.971 473.24L107.547 512.696C121.999 510.287 137.43 509.04 153.891 509.04V469.04V429.04C133.392 429.04 113.543 430.593 94.395 433.784L100.971 473.24ZM153.891 469.04V509.04C175.291 509.04 186.456 512.859 191.613 516.056L212.691 482.06L233.769 448.064C210.926 433.901 182.891 429.04 153.891 429.04V469.04ZM212.691 482.06L192.111 516.36C198.419 520.144 202.183 524.758 204.581 531.233L242.091 517.34L279.601 503.447C270.799 479.682 254.963 460.776 233.271 447.76L212.691 482.06ZM242.091 517.34L204.581 531.233C208.18 540.949 210.491 553.702 210.491 570.26H250.491H290.491C290.491 546.498 287.202 523.971 279.601 503.447L242.091 517.34ZM250.491 570.26H210.491V695H250.491H290.491V570.26H250.491ZM250.491 695V655H187.911V695V735H250.491V695ZM187.911 695H227.911V577.82H187.911H147.911V695H187.911ZM187.911 577.82H227.911C227.911 562.649 226.7 547.854 223.111 534.843L184.551 545.48L145.991 556.117C146.882 559.346 147.911 566.111 147.911 577.82H187.911ZM184.551 545.48L223.111 534.843C218.973 519.844 210.361 504.553 194.59 494.302L172.791 527.84L150.991 561.378C148.971 560.064 147.527 558.485 146.649 557.168C145.842 555.958 145.793 555.399 145.991 556.117L184.551 545.48ZM172.791 527.84L195.378 494.828C180.771 484.834 164.047 482.38 150.111 482.38V522.38V562.38C151.334 562.38 152.242 562.437 152.87 562.503C153.5 562.569 153.78 562.637 153.769 562.634C153.756 562.631 153.392 562.543 152.769 562.279C152.138 562.011 151.243 561.563 150.204 560.852L172.791 527.84ZM150.111 522.38V482.38C143.978 482.38 137.733 482.763 131.414 483.465L135.831 523.22L140.248 562.975C144.009 562.557 147.284 562.38 150.111 562.38V522.38ZM135.831 523.22L133.612 483.282C127.717 483.609 122.054 484.122 116.734 484.882L122.391 524.48L128.048 564.078C130.568 563.718 133.865 563.391 138.05 563.158L135.831 523.22ZM122.391 524.48H82.391V695H122.391H162.391V524.48H122.391ZM122.391 695V655H59.811V695V735H122.391V695ZM305.455 688.28L283.787 721.903L284.219 722.181L284.657 722.448L305.455 688.28ZM271.435 419.06L265.074 379.569L231.435 384.987V419.06H271.435ZM334.015 408.98H374.015V362.021L327.654 369.489L334.015 408.98ZM334.015 474.08H294.015V514.08H334.015V474.08ZM409.195 474.08H449.195V434.08H409.195V474.08ZM409.195 526.16V566.16H449.195V526.16H409.195ZM334.015 526.16V486.16H294.015V526.16H334.015ZM336.955 626.96L298.555 638.16L298.62 638.384L298.688 638.606L336.955 626.96ZM347.455 642.08L324.036 674.507L324.643 674.946L325.267 675.362L347.455 642.08ZM389.455 645.44L395.775 684.938L396.394 684.839L397.009 684.72L389.455 645.44ZM409.195 639.98L448.555 632.854L439.974 585.451L394.955 602.6L409.195 639.98ZM418.015 688.7L433.107 725.744L463.155 713.502L457.375 681.574L418.015 688.7ZM392.815 696.68L383.391 657.806V657.806L392.815 696.68ZM358.795 700.04V660.04C340.015 660.04 330.468 656.678 326.253 654.112L305.455 688.28L284.657 722.448C306.203 735.562 332.215 740.04 358.795 740.04V700.04ZM305.455 688.28L327.123 654.657C322.059 651.394 318.836 647.378 316.715 641.367L278.995 654.68L241.276 667.993C249.234 690.542 263.651 708.926 283.787 721.903L305.455 688.28ZM278.995 654.68L316.715 641.367C313.516 632.303 311.435 620.322 311.435 604.7H271.435H231.435C231.435 627.158 234.395 648.497 241.276 667.993L278.995 654.68ZM271.435 604.7H311.435V419.06H271.435H231.435V604.7H271.435ZM271.435 419.06L277.796 458.551L340.376 448.471L334.015 408.98L327.654 369.489L265.074 379.569L271.435 419.06ZM334.015 408.98H294.015V474.08H334.015H374.015V408.98H334.015ZM334.015 474.08V514.08H409.195V474.08V434.08H334.015V474.08ZM409.195 474.08H369.195V526.16H409.195H449.195V474.08H409.195ZM409.195 526.16V486.16H334.015V526.16V566.16H409.195V526.16ZM334.015 526.16H294.015V603.86H334.015H374.015V526.16H334.015ZM334.015 603.86H294.015C294.015 615.462 295.315 627.052 298.555 638.16L336.955 626.96L375.355 615.76C374.675 613.428 374.015 609.618 374.015 603.86H334.015ZM336.955 626.96L298.688 638.606C302.97 652.675 311.31 665.316 324.036 674.507L347.455 642.08L370.875 609.653C371.971 610.445 373.041 611.511 373.905 612.754C374.748 613.968 375.107 614.936 375.222 615.314L336.955 626.96ZM347.455 642.08L325.267 675.362C339.49 684.844 355.606 687.12 368.875 687.12V647.12V607.12C367.766 607.12 366.96 607.069 366.42 607.014C365.879 606.958 365.675 606.905 365.752 606.923C365.875 606.952 367.454 607.339 369.643 608.798L347.455 642.08ZM368.875 647.12V687.12C377.824 687.12 386.799 686.374 395.775 684.938L389.455 645.44L383.136 605.942C378.112 606.746 373.367 607.12 368.875 607.12V647.12ZM389.455 645.44L397.009 684.72C406.178 682.957 415.043 680.556 423.435 677.359L409.195 639.98L394.955 602.6C391.587 603.884 387.292 605.123 381.901 606.16L389.455 645.44ZM409.195 639.98L369.835 647.106L378.655 695.826L418.015 688.7L457.375 681.574L448.555 632.854L409.195 639.98ZM418.015 688.7L402.923 651.656C397.475 653.876 391.005 655.96 383.391 657.806L392.815 696.68L402.239 735.554C413.105 732.92 423.435 729.684 433.107 725.744L418.015 688.7ZM392.815 696.68L383.391 657.806C378.214 659.061 370.254 660.04 358.795 660.04V700.04V740.04C374.216 740.04 388.937 738.779 402.239 735.554L392.815 696.68ZM426.556 695H386.556V735H426.556V695ZM426.556 485.84L413.342 448.086L386.556 457.461V485.84H426.556ZM466.036 474.92L474.714 513.967L474.976 513.909L475.237 513.847L466.036 474.92ZM533.656 470.72L528.483 510.384L529.406 510.504L530.334 510.582L533.656 470.72ZM553.396 473.24L546.543 512.648L546.681 512.673L546.82 512.696L553.396 473.24ZM570.196 477.86L609.395 485.827L615.83 454.164L586.229 441.214L570.196 477.86ZM559.696 529.52L549.995 568.326L590.565 578.468L598.895 537.487L559.696 529.52ZM539.956 525.32L531.279 564.367L531.973 564.522L532.673 564.651L539.956 525.32ZM501.316 524.06L505.504 563.84L506.379 563.748L507.25 563.617L501.316 524.06ZM489.136 526.16L477.642 487.847L449.136 496.399V526.16H489.136ZM489.136 695V735H529.136V695H489.136ZM426.556 695H466.556V485.84H426.556H386.556V695H426.556ZM426.556 485.84L439.77 523.594C449.116 520.323 460.695 517.083 474.714 513.967L466.036 474.92L457.359 435.872C441.138 439.477 426.396 443.517 413.342 448.086L426.556 485.84ZM466.036 474.92L475.237 513.847C487.127 511.037 501.061 509.46 517.276 509.46V469.46V429.46C495.972 429.46 475.745 431.523 456.835 435.993L466.036 474.92ZM517.276 469.46V509.46C519.448 509.46 523.068 509.678 528.483 510.384L533.656 470.72L538.83 431.056C531.364 430.082 524.065 429.46 517.276 429.46V469.46ZM533.656 470.72L530.334 510.582C535.908 511.046 541.309 511.738 546.543 512.648L553.396 473.24L560.25 433.832C552.604 432.502 544.844 431.514 536.978 430.858L533.656 470.72ZM553.396 473.24L546.82 512.696C551.455 513.468 553.63 514.273 554.163 514.506L570.196 477.86L586.229 441.214C577.802 437.527 568.777 435.252 559.972 433.784L553.396 473.24ZM570.196 477.86L530.998 469.893L520.498 521.553L559.696 529.52L598.895 537.487L609.395 485.827L570.196 477.86ZM559.696 529.52L569.398 490.714C562.786 489.061 555.363 487.493 547.24 485.989L539.956 525.32L532.673 564.651C539.669 565.947 545.407 567.179 549.995 568.326L559.696 529.52ZM539.956 525.32L548.633 486.273C537.906 483.889 526.85 482.8 515.596 482.8V522.8V562.8C521.703 562.8 526.886 563.391 531.279 564.367L539.956 525.32ZM515.596 522.8V482.8C509.031 482.8 502.164 483.485 495.383 484.503L501.316 524.06L507.25 563.617C511.668 562.955 514.322 562.8 515.596 562.8V522.8ZM501.316 524.06L497.129 484.28C491.008 484.924 484.028 485.931 477.642 487.847L489.136 526.16L500.63 564.473C500.007 564.66 500.048 564.601 501.078 564.423C502.032 564.259 503.475 564.054 505.504 563.84L501.316 524.06ZM489.136 526.16H449.136V695H489.136H529.136V526.16H489.136ZM489.136 695V655H426.556V695V735H489.136V695ZM606.362 685.76L586.032 720.208L586.154 720.28L586.277 720.352L606.362 685.76ZM568.142 644.6L532.136 662.022V662.022L568.142 644.6ZM570.662 521.12L536.171 500.863L536.12 500.949L536.071 501.035L570.662 521.12ZM610.142 481.64L629.253 516.779L629.359 516.722L629.465 516.663L610.142 481.64ZM715.562 481.22L695.648 515.91L695.891 516.05L696.137 516.186L715.562 481.22ZM750.422 519.02L714.408 536.427L714.525 536.668L714.645 536.909L750.422 519.02ZM762.602 593.78L802.514 596.441L802.519 596.358L802.524 596.275L762.602 593.78ZM761.762 605.12V645.12H798.568L801.624 608.442L761.762 605.12ZM619.802 605.12V565.12H575.219L580.036 609.442L619.802 605.12ZM637.862 635.78L614.694 668.387V668.387L637.862 635.78ZM714.302 644.18L721.369 683.551L721.759 683.481L722.147 683.403L714.302 644.18ZM741.602 636.2L781.067 629.677L772.663 578.833L725.493 599.587L741.602 636.2ZM750.002 687.02L767.891 722.797L794.278 709.604L789.467 680.497L750.002 687.02ZM717.662 696.26L710.246 656.954L709.814 657.035L709.384 657.126L717.662 696.26ZM619.802 562.28L580.267 556.198L573.178 602.28H619.802V562.28ZM702.542 562.28V602.28H744.174L742.51 560.681L702.542 562.28ZM697.922 542.12L661.239 558.069L661.239 558.069L697.922 542.12ZM684.902 526.16L660.902 558.16L661.274 558.439L661.653 558.709L684.902 526.16ZM639.122 526.16L662.061 558.929L662.217 558.82L662.372 558.709L639.122 526.16ZM626.102 541.7L662.188 558.958L662.188 558.958L626.102 541.7ZM672.302 700.88V660.88C650.534 660.88 636.035 656.735 626.448 651.168L606.362 685.76L586.277 720.352C611.409 734.945 640.87 740.88 672.302 740.88V700.88ZM606.362 685.76L626.692 651.312C616.197 645.118 609.013 637.231 604.149 627.178L568.142 644.6L532.136 662.022C544.071 686.689 562.367 706.242 586.032 720.208L606.362 685.76ZM568.142 644.6L604.149 627.178C598.673 615.861 595.542 602.463 595.542 586.22H555.542H515.542C515.542 613.097 520.812 638.619 532.136 662.022L568.142 644.6ZM555.542 586.22H595.542C595.542 565.188 599.619 550.909 605.254 541.205L570.662 521.12L536.071 501.035C521.545 526.051 515.542 555.172 515.542 586.22H555.542ZM570.662 521.12L605.154 541.377C612.309 529.194 620.453 521.565 629.253 516.779L610.142 481.64L591.031 446.501C567.911 459.075 549.736 477.766 536.171 500.863L570.662 521.12ZM610.142 481.64L629.465 516.663C640.004 510.849 650.462 508.2 661.382 508.2V468.2V428.2C636.462 428.2 612.761 434.511 590.819 446.617L610.142 481.64ZM661.382 468.2V508.2C676.822 508.2 687.717 511.357 695.648 515.91L715.562 481.22L735.477 446.53C713.168 433.723 687.942 428.2 661.382 428.2V468.2ZM715.562 481.22L696.137 516.186C703.474 520.263 709.578 526.433 714.408 536.427L750.422 519.02L786.436 501.613C775.026 478.007 757.891 458.977 734.988 446.254L715.562 481.22ZM750.422 519.02L714.645 536.909C719.513 546.644 723.022 560.947 723.022 581.6H763.022H803.022C803.022 552.413 798.131 524.996 786.199 501.131L750.422 519.02ZM763.022 581.6H723.022C723.022 584.243 722.92 587.453 722.68 591.285L762.602 593.78L802.524 596.275C802.845 591.147 803.022 586.237 803.022 581.6H763.022ZM762.602 593.78L722.691 591.119C722.422 595.15 722.158 598.704 721.9 601.798L761.762 605.12L801.624 608.442C801.926 604.816 802.222 600.81 802.514 596.441L762.602 593.78ZM761.762 605.12V565.12H619.802V605.12V645.12H761.762V605.12ZM619.802 605.12L580.036 609.442C582.682 633.786 594.813 654.261 614.694 668.387L637.862 635.78L661.031 603.173C660.394 602.721 660.069 602.402 659.937 602.261C659.813 602.129 659.803 602.094 659.832 602.144C659.862 602.194 659.846 602.185 659.802 602.048C659.755 601.902 659.646 601.512 659.568 600.798L619.802 605.12ZM637.862 635.78L614.694 668.387C634.208 682.253 657.504 687.12 680.702 687.12V647.12V607.12C668.061 607.12 662.796 604.427 661.031 603.173L637.862 635.78ZM680.702 647.12V687.12C694.47 687.12 708.037 685.944 721.369 683.551L714.302 644.18L707.236 604.809C698.727 606.336 689.895 607.12 680.702 607.12V647.12ZM714.302 644.18L722.147 683.403C734.942 680.844 747.105 677.479 757.712 672.813L741.602 636.2L725.493 599.587C722.099 601.081 716.063 603.036 706.458 604.957L714.302 644.18ZM741.602 636.2L702.138 642.723L710.538 693.543L750.002 687.02L789.467 680.497L781.067 629.677L741.602 636.2ZM750.002 687.02L732.114 651.243C730.578 652.011 724.337 654.295 710.246 656.954L717.662 696.26L725.079 735.566C740.667 732.625 755.986 728.749 767.891 722.797L750.002 687.02ZM717.662 696.26L709.384 657.126C697.687 659.6 685.349 660.88 672.302 660.88V700.88V740.88C690.616 740.88 708.517 739.08 725.941 735.394L717.662 696.26ZM619.802 562.28V602.28H702.542V562.28V522.28H619.802V562.28ZM702.542 562.28L742.51 560.681C742.032 548.724 739.374 537.139 734.605 526.171L697.922 542.12L661.239 558.069C662.071 559.981 662.492 561.836 662.574 563.879L702.542 562.28ZM697.922 542.12L734.605 526.171C728.828 512.883 719.752 501.896 708.152 493.611L684.902 526.16L661.653 558.709C661.764 558.789 661.791 558.818 661.759 558.789C661.727 558.759 661.659 558.69 661.573 558.585C661.486 558.479 661.407 558.367 661.342 558.259C661.277 558.152 661.245 558.082 661.239 558.069L697.922 542.12ZM684.902 526.16L708.902 494.16C694.269 483.185 677.325 479.86 662.222 479.86V519.86V559.86C664.105 559.86 664.681 560.074 664.326 559.976C663.884 559.853 662.541 559.389 660.902 558.16L684.902 526.16ZM662.222 519.86V479.86C646.99 479.86 630.399 483.235 615.873 493.611L639.122 526.16L662.372 558.709C661.753 559.152 661.179 559.47 660.707 559.689C660.241 559.905 659.929 559.999 659.832 560.026C659.668 560.07 660.356 559.86 662.222 559.86V519.86ZM639.122 526.16L616.184 493.391C604.684 501.441 595.933 512.072 590.017 524.442L626.102 541.7L662.188 558.958C662.279 558.766 662.341 558.665 662.361 558.634C662.381 558.604 662.371 558.623 662.328 558.674C662.308 558.698 662.283 558.726 662.255 558.755C662.227 558.785 662.197 558.813 662.169 558.84C662.14 558.866 662.115 558.887 662.094 558.904C662.074 558.92 662.062 558.928 662.061 558.929L639.122 526.16ZM626.102 541.7L590.017 524.442C585.192 534.53 581.964 545.168 580.267 556.198L619.802 562.28L659.337 568.362C659.88 564.832 660.852 561.75 662.188 558.958L626.102 541.7ZM818.036 685.76L797.705 720.208L797.828 720.28L797.95 720.352L818.036 685.76ZM779.816 644.6L743.809 662.022V662.022L779.816 644.6ZM782.336 521.12L747.844 500.863L747.794 500.949L747.744 501.035L782.336 521.12ZM821.816 481.64L840.927 516.779L841.033 516.722L841.139 516.663L821.816 481.64ZM927.236 481.22L907.321 515.91L907.564 516.05L907.81 516.186L927.236 481.22ZM962.096 519.02L926.082 536.427L926.198 536.668L926.319 536.909L962.096 519.02ZM974.276 593.78L1014.19 596.441L1014.19 596.358L1014.2 596.275L974.276 593.78ZM973.436 605.12V645.12H1010.24L1013.3 608.442L973.436 605.12ZM831.476 605.12V565.12H786.892L791.71 609.442L831.476 605.12ZM849.536 635.78L826.367 668.387V668.387L849.536 635.78ZM925.976 644.18L933.042 683.551L933.432 683.481L933.82 683.403L925.976 644.18ZM953.276 636.2L992.74 629.677L984.336 578.833L937.166 599.587L953.276 636.2ZM961.676 687.02L979.564 722.797L1005.95 709.604L1001.14 680.497L961.676 687.02ZM929.336 696.26L921.919 656.954L921.487 657.035L921.057 657.126L929.336 696.26ZM831.476 562.28L791.941 556.198L784.851 602.28H831.476V562.28ZM914.216 562.28V602.28H955.848L954.184 560.681L914.216 562.28ZM909.596 542.12L872.913 558.069L872.913 558.069L909.596 542.12ZM896.576 526.16L872.576 558.16L872.948 558.439L873.326 558.709L896.576 526.16ZM850.796 526.16L873.734 558.929L873.89 558.82L874.045 558.709L850.796 526.16ZM837.776 541.7L873.861 558.958V558.958L837.776 541.7ZM883.976 700.88V660.88C862.207 660.88 847.709 656.735 838.121 651.168L818.036 685.76L797.95 720.352C823.083 734.945 852.544 740.88 883.976 740.88V700.88ZM818.036 685.76L838.366 651.312C827.87 645.118 820.687 637.231 815.822 627.178L779.816 644.6L743.809 662.022C755.745 686.689 774.041 706.242 797.705 720.208L818.036 685.76ZM779.816 644.6L815.822 627.178C810.346 615.861 807.216 602.463 807.216 586.22H767.216H727.216C727.216 613.097 732.485 638.619 743.809 662.022L779.816 644.6ZM767.216 586.22H807.216C807.216 565.188 811.293 550.909 816.927 541.205L782.336 521.12L747.744 501.035C733.218 526.051 727.216 555.172 727.216 586.22H767.216ZM782.336 521.12L816.827 541.377C823.982 529.194 832.126 521.565 840.927 516.779L821.816 481.64L802.705 446.501C779.585 459.075 761.409 477.766 747.844 500.863L782.336 521.12ZM821.816 481.64L841.139 516.663C851.677 510.849 862.136 508.2 873.056 508.2V468.2V428.2C848.135 428.2 824.434 434.511 802.492 446.617L821.816 481.64ZM873.056 468.2V508.2C888.496 508.2 899.39 511.357 907.321 515.91L927.236 481.22L947.15 446.53C924.841 433.723 899.615 428.2 873.056 428.2V468.2ZM927.236 481.22L907.81 516.186C915.147 520.263 921.252 526.433 926.082 536.427L962.096 519.02L998.11 501.613C986.7 478.007 969.564 458.977 946.661 446.254L927.236 481.22ZM962.096 519.02L926.319 536.909C931.186 546.644 934.696 560.947 934.696 581.6H974.696H1014.7C1014.7 552.413 1009.8 524.996 997.873 501.131L962.096 519.02ZM974.696 581.6H934.696C934.696 584.243 934.593 587.453 934.354 591.285L974.276 593.78L1014.2 596.275C1014.52 591.147 1014.7 586.237 1014.7 581.6H974.696ZM974.276 593.78L934.364 591.119C934.095 595.15 933.832 598.704 933.574 601.798L973.436 605.12L1013.3 608.442C1013.6 604.816 1013.9 600.81 1014.19 596.441L974.276 593.78ZM973.436 605.12V565.12H831.476V605.12V645.12H973.436V605.12ZM831.476 605.12L791.71 609.442C794.356 633.786 806.486 654.261 826.367 668.387L849.536 635.78L872.704 603.173C872.067 602.721 871.742 602.402 871.611 602.261C871.486 602.129 871.477 602.094 871.506 602.144C871.535 602.194 871.519 602.185 871.475 602.048C871.428 601.902 871.319 601.512 871.241 600.798L831.476 605.12ZM849.536 635.78L826.367 668.387C845.882 682.253 869.177 687.12 892.376 687.12V647.12V607.12C879.734 607.12 874.469 604.427 872.704 603.173L849.536 635.78ZM892.376 647.12V687.12C906.143 687.12 919.711 685.944 933.042 683.551L925.976 644.18L918.909 604.809C910.401 606.336 901.568 607.12 892.376 607.12V647.12ZM925.976 644.18L933.82 683.403C946.615 680.844 958.779 677.479 969.385 672.813L953.276 636.2L937.166 599.587C933.773 601.081 927.736 603.036 918.131 604.957L925.976 644.18ZM953.276 636.2L913.811 642.723L922.211 693.543L961.676 687.02L1001.14 680.497L992.74 629.677L953.276 636.2ZM961.676 687.02L943.787 651.243C942.252 652.011 936.011 654.295 921.919 656.954L929.336 696.26L936.752 735.566C952.34 732.625 967.659 728.749 979.564 722.797L961.676 687.02ZM929.336 696.26L921.057 657.126C909.36 659.6 897.022 660.88 883.976 660.88V700.88V740.88C902.289 740.88 920.191 739.08 937.614 735.394L929.336 696.26ZM831.476 562.28V602.28H914.216V562.28V522.28H831.476V562.28ZM914.216 562.28L954.184 560.681C953.705 548.724 951.047 537.139 946.278 526.171L909.596 542.12L872.913 558.069C873.744 559.981 874.166 561.836 874.248 563.879L914.216 562.28ZM909.596 542.12L946.278 526.171C940.501 512.883 931.425 501.896 919.825 493.611L896.576 526.16L873.326 558.709C873.437 558.789 873.464 558.818 873.433 558.789C873.4 558.759 873.332 558.69 873.246 558.585C873.16 558.479 873.081 558.367 873.015 558.259C872.95 558.152 872.919 558.082 872.913 558.069L909.596 542.12ZM896.576 526.16L920.576 494.16C905.942 483.185 888.998 479.86 873.896 479.86V519.86V559.86C875.779 559.86 876.354 560.074 876 559.976C875.557 559.853 874.214 559.389 872.576 558.16L896.576 526.16ZM873.896 519.86V479.86C858.663 479.86 842.072 483.235 827.546 493.611L850.796 526.16L874.045 558.709C873.426 559.152 872.852 559.47 872.38 559.689C871.914 559.905 871.602 559.999 871.505 560.026C871.341 560.07 872.03 559.86 873.896 559.86V519.86ZM850.796 526.16L827.857 493.391C816.357 501.441 807.606 512.072 801.69 524.442L837.776 541.7L873.861 558.958C873.953 558.766 874.015 558.665 874.035 558.634C874.054 558.604 874.044 558.623 874.001 558.674C873.981 558.698 873.957 558.726 873.928 558.755C873.9 558.785 873.871 558.813 873.842 558.84C873.813 558.866 873.788 558.887 873.768 558.904C873.747 558.92 873.736 558.928 873.734 558.929L850.796 526.16ZM837.776 541.7L801.69 524.442C796.866 534.53 793.638 545.168 791.941 556.198L831.476 562.28L871.01 568.362C871.554 564.832 872.526 561.75 873.861 558.958L837.776 541.7Z" fill="#250043" mask="url(#path-13-outside-1_3327_33)"/>
</g>
<defs>
<linearGradient id="paint0_linear_3327_33" x1="512" y1="0" x2="512" y2="1024" gradientUnits="userSpaceOnUse">
<stop stop-color="#1E1E2E"/>
<stop offset="1" stop-color="#616194"/>
</linearGradient>
<linearGradient id="paint1_linear_3327_33" x1="512" y1="0" x2="512" y2="1024" gradientUnits="userSpaceOnUse">
<stop offset="0.201923" stop-color="#8AFF80"/>
<stop offset="0.600962" stop-color="#120021"/>
</linearGradient>
<radialGradient id="paint2_radial_3327_33" cx="0" cy="0" r="1" gradientUnits="userSpaceOnUse" gradientTransform="translate(512 512) scale(443.438 443.438)">
<stop stop-color="#313244"/>
<stop offset="0.8" stop-color="#181825"/>
<stop offset="1" stop-color="#1E1E2E"/>
</radialGradient>
</defs>
</svg>
