<svg width="1772" height="498" viewBox="0 0 1772 498" fill="none" xmlns="http://www.w3.org/2000/svg">
<circle cx="220" cy="278" r="200" fill="#D9D9D9" stroke="white" stroke-width="40"/>
<circle cx="220" cy="278" r="155" fill="#D9D9D9" stroke="#DFFFDC" stroke-width="20"/>
<circle cx="151.5" cy="143.5" r="68.5" fill="#8AFF80"/>
<circle cx="151.5" cy="411.5" r="68.5" fill="#8AFF80"/>
<circle cx="151.5" cy="280.5" r="68.5" fill="#8AFF80"/>
<circle cx="288.5" cy="146.5" r="68.5" fill="#8AFF80"/>
<circle cx="288.5" cy="414.5" r="68.5" fill="#8AFF80"/>
<circle cx="288.5" cy="283.5" r="68.5" fill="#8AFF80"/>
<mask id="path-9-outside-1_3381_47" maskUnits="userSpaceOnUse" x="470" y="80" width="912" height="322" fill="black">
<rect fill="white" x="470" y="80" width="912" height="322"/>
<path d="M490 376V172.8C500.133 169.867 513.2 167.2 529.2 164.8C545.2 162.133 562 160.8 579.6 160.8C603.6 160.8 622.267 164.933 635.6 173.2C648.933 181.2 658.267 192.4 663.6 206.8C668.933 221.2 671.6 238 671.6 257.2V376H612V264.4C612 251.6 610.933 241.333 608.8 233.6C606.667 225.867 602.933 220.267 597.6 216.8C592.533 213.333 585.333 211.6 576 211.6C571.733 211.6 567.2 211.867 562.4 212.4C557.6 212.667 553.333 213.067 549.6 213.6V376H490ZM774.747 380.8C753.147 380.8 736.214 377.067 723.947 369.6C711.947 361.867 703.547 351.2 698.747 337.6C693.947 324 691.547 308.133 691.547 290V113.2L751.147 103.6V165.6H822.747V215.2H751.147V289.2C751.147 297.467 752.08 304.8 753.947 311.2C755.814 317.333 759.147 322.133 763.947 325.6C768.747 328.8 775.547 330.4 784.347 330.4C790.747 330.4 797.28 329.867 803.947 328.8C810.88 327.467 817.147 325.733 822.747 323.6L831.147 370C823.947 372.933 815.947 375.467 807.147 377.6C798.347 379.733 787.547 380.8 774.747 380.8ZM839.281 376V176.8C849.948 173.067 862.481 169.6 876.881 166.4C891.548 162.933 907.815 161.2 925.681 161.2C929.948 161.2 935.148 161.6 941.281 162.4C947.681 162.933 953.948 163.733 960.081 164.8C966.481 165.867 971.815 167.333 976.081 169.2L966.081 218.4C960.748 217.067 954.481 215.733 947.281 214.4C940.081 212.8 932.348 212 924.081 212C920.348 212 915.815 212.4 910.481 213.2C905.415 213.733 901.548 214.4 898.881 215.2V376H839.281ZM1073.33 381.6C1047.99 381.6 1027.06 376.8 1010.53 367.2C994.258 357.6 982.125 344.533 974.125 328C966.125 311.467 962.125 292.933 962.125 272.4C962.125 247.6 966.925 226.933 976.525 210.4C986.392 193.6 998.925 181.067 1014.13 172.8C1029.59 164.267 1045.86 160 1062.93 160C1082.93 160 1100.13 164.133 1114.53 172.4C1128.93 180.4 1139.99 192.4 1147.73 208.4C1155.73 224.4 1159.73 244.267 1159.73 268C1159.73 271.467 1159.59 275.333 1159.33 279.6C1159.06 283.6 1158.79 287.2 1158.53 290.4H1023.33C1024.66 302.667 1030.39 312.4 1040.53 319.6C1050.66 326.8 1064.26 330.4 1081.33 330.4C1092.26 330.4 1102.93 329.467 1113.33 327.6C1123.99 325.467 1132.66 322.933 1139.33 320L1147.33 368.4C1140.93 371.6 1130.66 374.533 1116.53 377.2C1102.66 380.133 1088.26 381.6 1073.33 381.6ZM1023.33 249.6H1102.13C1101.86 242.933 1100.39 236.533 1097.73 230.4C1095.06 224.267 1090.93 219.2 1085.33 215.2C1079.99 211.2 1072.79 209.2 1063.73 209.2C1054.66 209.2 1047.33 211.2 1041.73 215.2C1036.39 218.933 1032.26 223.867 1029.33 230C1026.39 236.133 1024.39 242.667 1023.33 249.6ZM1274.92 381.6C1249.59 381.6 1228.65 376.8 1212.12 367.2C1195.85 357.6 1183.72 344.533 1175.72 328C1167.72 311.467 1163.72 292.933 1163.72 272.4C1163.72 247.6 1168.52 226.933 1178.12 210.4C1187.99 193.6 1200.52 181.067 1215.72 172.8C1231.19 164.267 1247.45 160 1264.52 160C1284.52 160 1301.72 164.133 1316.12 172.4C1330.52 180.4 1341.59 192.4 1349.32 208.4C1357.32 224.4 1361.32 244.267 1361.32 268C1361.32 271.467 1361.19 275.333 1360.92 279.6C1360.65 283.6 1360.39 287.2 1360.12 290.4H1224.92C1226.25 302.667 1231.99 312.4 1242.12 319.6C1252.25 326.8 1265.85 330.4 1282.92 330.4C1293.85 330.4 1304.52 329.467 1314.92 327.6C1325.59 325.467 1334.25 322.933 1340.92 320L1348.92 368.4C1342.52 371.6 1332.25 374.533 1318.12 377.2C1304.25 380.133 1289.85 381.6 1274.92 381.6ZM1224.92 249.6H1303.72C1303.45 242.933 1301.99 236.533 1299.32 230.4C1296.65 224.267 1292.52 219.2 1286.92 215.2C1281.59 211.2 1274.39 209.2 1265.32 209.2C1256.25 209.2 1248.92 211.2 1243.32 215.2C1237.99 218.933 1233.85 223.867 1230.92 230C1227.99 236.133 1225.99 242.667 1224.92 249.6Z"/>
</mask>
<path d="M490 376V172.8C500.133 169.867 513.2 167.2 529.2 164.8C545.2 162.133 562 160.8 579.6 160.8C603.6 160.8 622.267 164.933 635.6 173.2C648.933 181.2 658.267 192.4 663.6 206.8C668.933 221.2 671.6 238 671.6 257.2V376H612V264.4C612 251.6 610.933 241.333 608.8 233.6C606.667 225.867 602.933 220.267 597.6 216.8C592.533 213.333 585.333 211.6 576 211.6C571.733 211.6 567.2 211.867 562.4 212.4C557.6 212.667 553.333 213.067 549.6 213.6V376H490ZM774.747 380.8C753.147 380.8 736.214 377.067 723.947 369.6C711.947 361.867 703.547 351.2 698.747 337.6C693.947 324 691.547 308.133 691.547 290V113.2L751.147 103.6V165.6H822.747V215.2H751.147V289.2C751.147 297.467 752.08 304.8 753.947 311.2C755.814 317.333 759.147 322.133 763.947 325.6C768.747 328.8 775.547 330.4 784.347 330.4C790.747 330.4 797.28 329.867 803.947 328.8C810.88 327.467 817.147 325.733 822.747 323.6L831.147 370C823.947 372.933 815.947 375.467 807.147 377.6C798.347 379.733 787.547 380.8 774.747 380.8ZM839.281 376V176.8C849.948 173.067 862.481 169.6 876.881 166.4C891.548 162.933 907.815 161.2 925.681 161.2C929.948 161.2 935.148 161.6 941.281 162.4C947.681 162.933 953.948 163.733 960.081 164.8C966.481 165.867 971.815 167.333 976.081 169.2L966.081 218.4C960.748 217.067 954.481 215.733 947.281 214.4C940.081 212.8 932.348 212 924.081 212C920.348 212 915.815 212.4 910.481 213.2C905.415 213.733 901.548 214.4 898.881 215.2V376H839.281ZM1073.33 381.6C1047.99 381.6 1027.06 376.8 1010.53 367.2C994.258 357.6 982.125 344.533 974.125 328C966.125 311.467 962.125 292.933 962.125 272.4C962.125 247.6 966.925 226.933 976.525 210.4C986.392 193.6 998.925 181.067 1014.13 172.8C1029.59 164.267 1045.86 160 1062.93 160C1082.93 160 1100.13 164.133 1114.53 172.4C1128.93 180.4 1139.99 192.4 1147.73 208.4C1155.73 224.4 1159.73 244.267 1159.73 268C1159.73 271.467 1159.59 275.333 1159.33 279.6C1159.06 283.6 1158.79 287.2 1158.53 290.4H1023.33C1024.66 302.667 1030.39 312.4 1040.53 319.6C1050.66 326.8 1064.26 330.4 1081.33 330.4C1092.26 330.4 1102.93 329.467 1113.33 327.6C1123.99 325.467 1132.66 322.933 1139.33 320L1147.33 368.4C1140.93 371.6 1130.66 374.533 1116.53 377.2C1102.66 380.133 1088.26 381.6 1073.33 381.6ZM1023.33 249.6H1102.13C1101.86 242.933 1100.39 236.533 1097.73 230.4C1095.06 224.267 1090.93 219.2 1085.33 215.2C1079.99 211.2 1072.79 209.2 1063.73 209.2C1054.66 209.2 1047.33 211.2 1041.73 215.2C1036.39 218.933 1032.26 223.867 1029.33 230C1026.39 236.133 1024.39 242.667 1023.33 249.6ZM1274.92 381.6C1249.59 381.6 1228.65 376.8 1212.12 367.2C1195.85 357.6 1183.72 344.533 1175.72 328C1167.72 311.467 1163.72 292.933 1163.72 272.4C1163.72 247.6 1168.52 226.933 1178.12 210.4C1187.99 193.6 1200.52 181.067 1215.72 172.8C1231.19 164.267 1247.45 160 1264.52 160C1284.52 160 1301.72 164.133 1316.12 172.4C1330.52 180.4 1341.59 192.4 1349.32 208.4C1357.32 224.4 1361.32 244.267 1361.32 268C1361.32 271.467 1361.19 275.333 1360.92 279.6C1360.65 283.6 1360.39 287.2 1360.12 290.4H1224.92C1226.25 302.667 1231.99 312.4 1242.12 319.6C1252.25 326.8 1265.85 330.4 1282.92 330.4C1293.85 330.4 1304.52 329.467 1314.92 327.6C1325.59 325.467 1334.25 322.933 1340.92 320L1348.92 368.4C1342.52 371.6 1332.25 374.533 1318.12 377.2C1304.25 380.133 1289.85 381.6 1274.92 381.6ZM1224.92 249.6H1303.72C1303.45 242.933 1301.99 236.533 1299.32 230.4C1296.65 224.267 1292.52 219.2 1286.92 215.2C1281.59 211.2 1274.39 209.2 1265.32 209.2C1256.25 209.2 1248.92 211.2 1243.32 215.2C1237.99 218.933 1233.85 223.867 1230.92 230C1227.99 236.133 1225.99 242.667 1224.92 249.6Z" fill="black"/>
<path d="M490 376H470V396H490V376ZM490 172.8L484.439 153.589L470 157.768V172.8H490ZM529.2 164.8L532.167 184.579L532.328 184.555L532.488 184.528L529.2 164.8ZM635.6 173.2L625.061 190.198L625.185 190.275L625.31 190.35L635.6 173.2ZM663.6 206.8L644.845 213.746V213.746L663.6 206.8ZM671.6 376V396H691.6V376H671.6ZM612 376H592V396H612V376ZM608.8 233.6L589.52 238.919L589.52 238.919L608.8 233.6ZM597.6 216.8L586.306 233.306L586.502 233.44L586.7 233.569L597.6 216.8ZM562.4 212.4L563.509 232.369L564.06 232.339L564.609 232.278L562.4 212.4ZM549.6 213.6L546.772 193.801L529.6 196.254V213.6H549.6ZM549.6 376V396H569.6V376H549.6ZM490 376H510V172.8H490H470V376H490ZM490 172.8L495.561 192.011C504.521 189.418 516.634 186.909 532.167 184.579L529.2 164.8L526.233 145.021C509.766 147.491 495.745 150.316 484.439 153.589L490 172.8ZM529.2 164.8L532.488 184.528C547.314 182.057 563.009 180.8 579.6 180.8V160.8V140.8C560.991 140.8 543.086 142.21 525.912 145.072L529.2 164.8ZM579.6 160.8V180.8C601.7 180.8 616.149 184.673 625.061 190.198L635.6 173.2L646.139 156.202C628.384 145.194 605.5 140.8 579.6 140.8V160.8ZM635.6 173.2L625.31 190.35C634.797 196.042 641.113 203.669 644.845 213.746L663.6 206.8L682.355 199.854C675.421 181.131 663.07 166.358 645.89 156.05L635.6 173.2ZM663.6 206.8L644.845 213.746C649.178 225.445 651.6 239.801 651.6 257.2H671.6H691.6C691.6 236.199 688.689 216.955 682.355 199.854L663.6 206.8ZM671.6 257.2H651.6V376H671.6H691.6V257.2H671.6ZM671.6 376V356H612V376V396H671.6V376ZM612 376H632V264.4H612H592V376H612ZM612 264.4H632C632 250.734 630.888 238.46 628.08 228.281L608.8 233.6L589.52 238.919C590.979 244.206 592 252.466 592 264.4H612ZM608.8 233.6L628.08 228.281C624.998 217.109 618.918 206.803 608.5 200.031L597.6 216.8L586.7 233.569C586.948 233.73 588.336 234.625 589.52 238.919L608.8 233.6ZM597.6 216.8L608.894 200.294C599.184 193.65 587.401 191.6 576 191.6V211.6V231.6C583.265 231.6 585.883 233.017 586.306 233.306L597.6 216.8ZM576 211.6V191.6C570.907 191.6 565.631 191.918 560.191 192.522L562.4 212.4L564.609 232.278C568.769 231.815 572.56 231.6 576 231.6V211.6ZM562.4 212.4L561.291 192.431C556.063 192.721 551.205 193.168 546.772 193.801L549.6 213.6L552.428 233.399C555.462 232.966 559.137 232.612 563.509 232.369L562.4 212.4ZM549.6 213.6H529.6V376H549.6H569.6V213.6H549.6ZM549.6 376V356H490V376V396H549.6V376ZM723.947 369.6L713.113 386.411L713.329 386.55L713.548 386.684L723.947 369.6ZM691.547 113.2L688.366 93.4545L671.547 96.1637V113.2H691.547ZM751.147 103.6H771.147V80.1207L747.966 83.8545L751.147 103.6ZM751.147 165.6H731.147V185.6H751.147V165.6ZM822.747 165.6H842.747V145.6H822.747V165.6ZM822.747 215.2V235.2H842.747V215.2H822.747ZM751.147 215.2V195.2H731.147V215.2H751.147ZM753.947 311.2L734.747 316.8L734.779 316.912L734.813 317.023L753.947 311.2ZM763.947 325.6L752.237 341.814L752.541 342.033L752.853 342.241L763.947 325.6ZM803.947 328.8L807.107 348.549L807.416 348.499L807.724 348.44L803.947 328.8ZM822.747 323.6L842.427 320.037L838.136 296.335L815.627 304.91L822.747 323.6ZM831.147 370L838.693 388.522L853.717 382.401L850.827 366.437L831.147 370ZM807.147 377.6L802.435 358.163V358.163L807.147 377.6ZM774.747 380.8V360.8C755.097 360.8 742.28 357.345 734.346 352.516L723.947 369.6L713.548 386.684C730.147 396.788 751.197 400.8 774.747 400.8V380.8ZM723.947 369.6L734.781 352.789C726.549 347.484 720.947 340.409 717.607 330.944L698.747 337.6L679.887 344.256C686.146 361.991 697.345 376.25 713.113 386.411L723.947 369.6ZM698.747 337.6L717.607 330.944C713.727 319.951 711.547 306.424 711.547 290H691.547H671.547C671.547 309.842 674.167 328.049 679.887 344.256L698.747 337.6ZM691.547 290H711.547V113.2H691.547H671.547V290H691.547ZM691.547 113.2L694.727 132.945L754.327 123.345L751.147 103.6L747.966 83.8545L688.366 93.4545L691.547 113.2ZM751.147 103.6H731.147V165.6H751.147H771.147V103.6H751.147ZM751.147 165.6V185.6H822.747V165.6V145.6H751.147V165.6ZM822.747 165.6H802.747V215.2H822.747H842.747V165.6H822.747ZM822.747 215.2V195.2H751.147V215.2V235.2H822.747V215.2ZM751.147 215.2H731.147V289.2H751.147H771.147V215.2H751.147ZM751.147 289.2H731.147C731.147 298.927 732.24 308.206 734.747 316.8L753.947 311.2L773.147 305.6C771.92 301.394 771.147 296.006 771.147 289.2H751.147ZM753.947 311.2L734.813 317.023C737.841 326.971 743.594 335.572 752.237 341.814L763.947 325.6L775.657 309.386C774.699 308.695 773.786 307.696 773.08 305.377L753.947 311.2ZM763.947 325.6L752.853 342.241C762.244 348.502 773.532 350.4 784.347 350.4V330.4V310.4C777.562 310.4 775.25 309.098 775.041 308.959L763.947 325.6ZM784.347 330.4V350.4C791.861 350.4 799.452 349.774 807.107 348.549L803.947 328.8L800.787 309.051C795.109 309.96 789.633 310.4 784.347 310.4V330.4ZM803.947 328.8L807.724 348.44C815.602 346.925 823.011 344.901 829.867 342.29L822.747 323.6L815.627 304.91C811.283 306.565 806.159 308.008 800.17 309.16L803.947 328.8ZM822.747 323.6L803.067 327.163L811.467 373.563L831.147 370L850.827 366.437L842.427 320.037L822.747 323.6ZM831.147 370L823.601 351.478C817.457 353.981 810.422 356.227 802.435 358.163L807.147 377.6L811.859 397.037C821.472 394.707 830.437 391.885 838.693 388.522L831.147 370ZM807.147 377.6L802.435 358.163C795.666 359.804 786.556 360.8 774.747 360.8V380.8V400.8C788.537 400.8 801.028 399.663 811.859 397.037L807.147 377.6ZM839.281 376H819.281V396H839.281V376ZM839.281 176.8L832.674 157.923L819.281 162.61V176.8H839.281ZM876.881 166.4L881.22 185.924L881.351 185.895L881.482 185.864L876.881 166.4ZM941.281 162.4L938.695 182.232L939.156 182.292L939.62 182.331L941.281 162.4ZM960.081 164.8L956.654 184.504L956.724 184.516L956.793 184.528L960.081 164.8ZM976.081 169.2L995.681 173.184L998.898 157.352L984.098 150.877L976.081 169.2ZM966.081 218.4L961.231 237.803L981.516 242.874L985.681 222.384L966.081 218.4ZM947.281 214.4L942.943 233.924L943.29 234.001L943.639 234.066L947.281 214.4ZM910.481 213.2L912.575 233.09L913.013 233.044L913.448 232.979L910.481 213.2ZM898.881 215.2L893.134 196.043L878.881 200.319V215.2H898.881ZM898.881 376V396H918.881V376H898.881ZM839.281 376H859.281V176.8H839.281H819.281V376H839.281ZM839.281 176.8L845.888 195.677C855.628 192.268 867.371 189.001 881.22 185.924L876.881 166.4L872.543 146.876C857.592 150.199 844.268 153.865 832.674 157.923L839.281 176.8ZM876.881 166.4L881.482 185.864C894.393 182.812 909.087 181.2 925.681 181.2V161.2V141.2C906.542 141.2 888.703 143.055 872.281 146.936L876.881 166.4ZM925.681 161.2V181.2C928.794 181.2 933.074 181.499 938.695 182.232L941.281 162.4L943.868 142.568C937.222 141.701 931.102 141.2 925.681 141.2V161.2ZM941.281 162.4L939.62 182.331C945.447 182.816 951.124 183.542 956.654 184.504L960.081 164.8L963.508 145.096C956.772 143.924 949.915 143.05 942.942 142.469L941.281 162.4ZM960.081 164.8L956.793 184.528C962.151 185.421 965.772 186.52 968.065 187.523L976.081 169.2L984.098 150.877C977.858 148.147 970.812 146.313 963.369 145.072L960.081 164.8ZM976.081 169.2L956.482 165.216L946.482 214.416L966.081 218.4L985.681 222.384L995.681 173.184L976.081 169.2ZM966.081 218.4L970.932 198.997C965.093 197.537 958.405 196.12 950.923 194.734L947.281 214.4L943.639 234.066C950.558 235.347 956.403 236.596 961.231 237.803L966.081 218.4ZM947.281 214.4L951.62 194.876C942.836 192.924 933.635 192 924.081 192V212V232C931.061 232 937.326 232.676 942.943 233.924L947.281 214.4ZM924.081 212V192C919.025 192 913.439 192.533 907.514 193.421L910.481 213.2L913.448 232.979C918.191 232.267 921.671 232 924.081 232V212ZM910.481 213.2L908.388 193.31C902.921 193.885 897.594 194.706 893.134 196.043L898.881 215.2L904.628 234.357C905.502 234.094 907.909 233.581 912.575 233.09L910.481 213.2ZM898.881 215.2H878.881V376H898.881H918.881V215.2H898.881ZM898.881 376V356H839.281V376V396H898.881V376ZM1010.53 367.2L1000.36 384.424L1000.42 384.46L1000.48 384.496L1010.53 367.2ZM974.125 328L956.122 336.711V336.711L974.125 328ZM976.525 210.4L959.279 200.272L959.254 200.314L959.229 200.357L976.525 210.4ZM1014.12 172.8L1023.68 190.37L1023.73 190.341L1023.79 190.312L1014.12 172.8ZM1114.53 172.4L1104.57 189.745L1104.69 189.815L1104.81 189.883L1114.53 172.4ZM1147.72 208.4L1129.72 217.103L1129.78 217.224L1129.84 217.344L1147.72 208.4ZM1159.33 279.6L1179.28 280.93L1179.28 280.889L1179.29 280.848L1159.33 279.6ZM1158.53 290.4V310.4H1176.93L1178.46 292.061L1158.53 290.4ZM1023.33 290.4V270.4H1001.03L1003.44 292.561L1023.33 290.4ZM1040.53 319.6L1028.94 335.904V335.904L1040.53 319.6ZM1113.33 327.6L1116.86 347.285L1117.05 347.25L1117.25 347.212L1113.33 327.6ZM1139.33 320L1159.06 316.738L1154.86 291.316L1131.27 301.694L1139.33 320ZM1147.33 368.4L1156.27 386.289L1169.46 379.692L1167.06 365.138L1147.33 368.4ZM1116.53 377.2L1112.82 357.547L1112.6 357.588L1112.39 357.633L1116.53 377.2ZM1023.33 249.6L1003.56 246.559L1000.01 269.6H1023.33V249.6ZM1102.12 249.6V269.6H1122.94L1122.11 248.801L1102.12 249.6ZM1097.72 230.4L1079.38 238.375V238.375L1097.72 230.4ZM1085.33 215.2L1073.33 231.2L1073.51 231.34L1073.7 231.475L1085.33 215.2ZM1041.72 215.2L1053.19 231.585L1053.27 231.53L1053.35 231.475L1041.72 215.2ZM1029.33 230L1047.37 238.629V238.629L1029.33 230ZM1073.33 381.6V361.6C1050.41 361.6 1033.21 357.248 1020.57 349.904L1010.53 367.2L1000.48 384.496C1020.9 396.352 1045.58 401.6 1073.33 401.6V381.6ZM1010.53 367.2L1020.69 349.976C1007.72 342.319 998.36 332.169 992.128 319.289L974.125 328L956.122 336.711C965.89 356.898 980.801 372.881 1000.36 384.424L1010.53 367.2ZM974.125 328L992.128 319.289C985.59 305.777 982.125 290.275 982.125 272.4H962.125H942.125C942.125 295.592 946.66 317.156 956.122 336.711L974.125 328ZM962.125 272.4H982.125C982.125 250.104 986.444 233.148 993.821 220.443L976.525 210.4L959.229 200.357C947.406 220.719 942.125 245.096 942.125 272.4H962.125ZM976.525 210.4L993.771 220.528C1002.03 206.457 1012.06 196.689 1023.68 190.37L1014.12 172.8L1004.57 155.23C985.79 165.444 970.748 180.743 959.279 200.272L976.525 210.4ZM1014.12 172.8L1023.79 190.312C1036.4 183.351 1049.36 180 1062.92 180V160V140C1042.36 140 1022.78 145.182 1004.46 155.288L1014.12 172.8ZM1062.92 160V180C1080.15 180 1093.76 183.542 1104.57 189.745L1114.53 172.4L1124.48 155.055C1106.49 144.725 1085.7 140 1062.92 140V160ZM1114.53 172.4L1104.81 189.883C1115.32 195.721 1123.63 204.507 1129.72 217.103L1147.72 208.4L1165.73 199.697C1156.35 180.293 1142.53 165.079 1124.24 154.917L1114.53 172.4ZM1147.72 208.4L1129.84 217.344C1136.07 229.812 1139.72 246.4 1139.72 268H1159.72H1179.72C1179.72 242.133 1175.38 218.988 1165.61 199.456L1147.72 208.4ZM1159.72 268H1139.72C1139.72 270.968 1139.61 274.41 1139.36 278.352L1159.33 279.6L1179.29 280.848C1179.57 276.257 1179.72 271.965 1179.72 268H1159.72ZM1159.33 279.6L1139.37 278.27C1139.11 282.185 1138.85 285.672 1138.59 288.739L1158.53 290.4L1178.46 292.061C1178.73 288.728 1179.01 285.015 1179.28 280.93L1159.33 279.6ZM1158.53 290.4V270.4H1023.33V290.4V310.4H1158.53V290.4ZM1023.33 290.4L1003.44 292.561C1005.4 310.56 1014.19 325.421 1028.94 335.904L1040.53 319.6L1052.11 303.296C1046.6 299.379 1043.92 294.774 1043.21 288.239L1023.33 290.4ZM1040.53 319.6L1028.94 335.904C1043.51 346.256 1061.62 350.4 1081.33 350.4V330.4V310.4C1066.9 310.4 1057.81 307.344 1052.11 303.296L1040.53 319.6ZM1081.33 330.4V350.4C1093.4 350.4 1105.25 349.369 1116.86 347.285L1113.33 327.6L1109.79 307.915C1100.6 309.565 1091.11 310.4 1081.33 310.4V330.4ZM1113.33 327.6L1117.25 347.212C1128.71 344.919 1138.91 342.033 1147.38 338.306L1139.33 320L1131.27 301.694C1126.41 303.834 1119.27 306.015 1109.4 307.988L1113.33 327.6ZM1139.33 320L1119.59 323.262L1127.59 371.662L1147.33 368.4L1167.06 365.138L1159.06 316.738L1139.33 320ZM1147.33 368.4L1138.38 350.511C1134.57 352.415 1126.58 354.951 1112.82 357.547L1116.53 377.2L1120.23 396.853C1134.74 394.116 1147.28 390.785 1156.27 386.289L1147.33 368.4ZM1116.53 377.2L1112.39 357.633C1099.95 360.263 1086.94 361.6 1073.33 361.6V381.6V401.6C1089.58 401.6 1105.37 400.003 1120.66 396.767L1116.53 377.2ZM1023.33 249.6V269.6H1102.12V249.6V229.6H1023.33V249.6ZM1102.12 249.6L1122.11 248.801C1121.74 239.655 1119.72 230.823 1116.07 222.425L1097.72 230.4L1079.38 238.375C1081.07 242.244 1081.97 246.212 1082.14 250.399L1102.12 249.6ZM1097.72 230.4L1116.07 222.425C1111.91 212.868 1105.41 204.968 1096.95 198.925L1085.33 215.2L1073.7 231.475C1076.44 233.432 1078.21 235.665 1079.38 238.375L1097.72 230.4ZM1085.33 215.2L1097.33 199.2C1087.47 191.812 1075.58 189.2 1063.72 189.2V209.2V229.2C1070 229.2 1072.51 230.588 1073.33 231.2L1085.33 215.2ZM1063.72 209.2V189.2C1051.8 189.2 1040.02 191.837 1030.1 198.925L1041.72 215.2L1053.35 231.475C1054.63 230.562 1057.51 229.2 1063.72 229.2V209.2ZM1041.72 215.2L1030.26 198.815C1021.97 204.614 1015.63 212.273 1011.28 221.371L1029.33 230L1047.37 238.629C1048.88 235.461 1050.81 233.253 1053.19 231.585L1041.72 215.2ZM1029.33 230L1011.28 221.371C1007.48 229.328 1004.91 237.751 1003.56 246.559L1023.33 249.6L1043.09 252.641C1043.87 247.583 1045.31 242.939 1047.37 238.629L1029.33 230ZM1212.12 367.2L1201.95 384.424L1202.01 384.46L1202.08 384.496L1212.12 367.2ZM1175.72 328L1157.72 336.711V336.711L1175.72 328ZM1178.12 210.4L1160.87 200.272L1160.85 200.314L1160.82 200.357L1178.12 210.4ZM1215.72 172.8L1225.27 190.37L1225.33 190.341L1225.38 190.312L1215.72 172.8ZM1316.12 172.4L1306.16 189.745L1306.28 189.815L1306.41 189.883L1316.12 172.4ZM1349.32 208.4L1331.31 217.103L1331.37 217.224L1331.43 217.344L1349.32 208.4ZM1360.92 279.6L1380.87 280.93L1380.88 280.889L1380.88 280.848L1360.92 279.6ZM1360.12 290.4V310.4H1378.52L1380.05 292.061L1360.12 290.4ZM1224.92 290.4V270.4H1202.63L1205.04 292.561L1224.92 290.4ZM1242.12 319.6L1230.53 335.904V335.904L1242.12 319.6ZM1314.92 327.6L1318.45 347.285L1318.65 347.25L1318.84 347.212L1314.92 327.6ZM1340.92 320L1360.65 316.738L1356.45 291.316L1332.86 301.694L1340.92 320ZM1348.92 368.4L1357.86 386.289L1371.06 379.692L1368.65 365.138L1348.92 368.4ZM1318.12 377.2L1314.41 357.547L1314.19 357.588L1313.98 357.633L1318.12 377.2ZM1224.92 249.6L1205.15 246.559L1201.61 269.6H1224.92V249.6ZM1303.72 249.6V269.6H1324.53L1323.7 248.801L1303.72 249.6ZM1299.32 230.4L1280.98 238.375V238.375L1299.32 230.4ZM1286.92 215.2L1274.92 231.2L1275.1 231.34L1275.29 231.475L1286.92 215.2ZM1243.32 215.2L1254.79 231.585L1254.87 231.53L1254.94 231.475L1243.32 215.2ZM1230.92 230L1248.96 238.629V238.629L1230.92 230ZM1274.92 381.6V361.6C1252 361.6 1234.81 357.248 1222.16 349.904L1212.12 367.2L1202.08 384.496C1222.5 396.352 1247.17 401.6 1274.92 401.6V381.6ZM1212.12 367.2L1222.28 349.976C1209.31 342.319 1199.95 332.169 1193.72 319.289L1175.72 328L1157.72 336.711C1167.48 356.898 1182.39 372.881 1201.95 384.424L1212.12 367.2ZM1175.72 328L1193.72 319.289C1187.18 305.777 1183.72 290.275 1183.72 272.4H1163.72H1143.72C1143.72 295.592 1148.25 317.156 1157.72 336.711L1175.72 328ZM1163.72 272.4H1183.72C1183.72 250.104 1188.04 233.148 1195.41 220.443L1178.12 210.4L1160.82 200.357C1149 220.719 1143.72 245.096 1143.72 272.4H1163.72ZM1178.12 210.4L1195.36 220.528C1203.63 206.457 1213.65 196.689 1225.27 190.37L1215.72 172.8L1206.16 155.23C1187.38 165.444 1172.34 180.743 1160.87 200.272L1178.12 210.4ZM1215.72 172.8L1225.38 190.312C1238 183.351 1250.95 180 1264.52 180V160V140C1243.95 140 1224.37 145.182 1206.06 155.288L1215.72 172.8ZM1264.52 160V180C1281.74 180 1295.36 183.542 1306.16 189.745L1316.12 172.4L1326.08 155.055C1308.08 144.725 1287.3 140 1264.52 140V160ZM1316.12 172.4L1306.41 189.883C1316.91 195.721 1325.22 204.507 1331.31 217.103L1349.32 208.4L1367.33 199.697C1357.95 180.293 1344.12 165.079 1325.83 154.917L1316.12 172.4ZM1349.32 208.4L1331.43 217.344C1337.66 229.812 1341.32 246.4 1341.32 268H1361.32H1381.32C1381.32 242.133 1376.97 218.988 1367.21 199.456L1349.32 208.4ZM1361.32 268H1341.32C1341.32 270.968 1341.2 274.41 1340.96 278.352L1360.92 279.6L1380.88 280.848C1381.17 276.257 1381.32 271.965 1381.32 268H1361.32ZM1360.92 279.6L1340.96 278.27C1340.7 282.185 1340.44 285.672 1340.19 288.739L1360.12 290.4L1380.05 292.061C1380.33 288.728 1380.6 285.015 1380.87 280.93L1360.92 279.6ZM1360.12 290.4V270.4H1224.92V290.4V310.4H1360.12V290.4ZM1224.92 290.4L1205.04 292.561C1206.99 310.56 1215.78 325.421 1230.53 335.904L1242.12 319.6L1253.7 303.296C1248.19 299.379 1245.51 294.774 1244.8 288.239L1224.92 290.4ZM1242.12 319.6L1230.53 335.904C1245.11 346.256 1263.21 350.4 1282.92 350.4V330.4V310.4C1268.49 310.4 1259.4 307.344 1253.7 303.296L1242.12 319.6ZM1282.92 330.4V350.4C1295 350.4 1306.85 349.369 1318.45 347.285L1314.92 327.6L1311.39 307.915C1302.19 309.565 1292.71 310.4 1282.92 310.4V330.4ZM1314.92 327.6L1318.84 347.212C1330.31 344.919 1340.5 342.033 1348.97 338.306L1340.92 320L1332.86 301.694C1328 303.834 1320.87 306.015 1311 307.988L1314.92 327.6ZM1340.92 320L1321.19 323.262L1329.19 371.662L1348.92 368.4L1368.65 365.138L1360.65 316.738L1340.92 320ZM1348.92 368.4L1339.97 350.511C1336.17 352.415 1328.17 354.951 1314.41 357.547L1318.12 377.2L1321.83 396.853C1336.33 394.116 1348.87 390.785 1357.86 386.289L1348.92 368.4ZM1318.12 377.2L1313.98 357.633C1301.54 360.263 1288.54 361.6 1274.92 361.6V381.6V401.6C1291.17 401.6 1306.96 400.003 1322.26 396.767L1318.12 377.2ZM1224.92 249.6V269.6H1303.72V249.6V229.6H1224.92V249.6ZM1303.72 249.6L1323.7 248.801C1323.34 239.655 1321.31 230.823 1317.66 222.425L1299.32 230.4L1280.98 238.375C1282.66 242.244 1283.57 246.212 1283.73 250.399L1303.72 249.6ZM1299.32 230.4L1317.66 222.425C1313.5 212.868 1307 204.968 1298.54 198.925L1286.92 215.2L1275.29 231.475C1278.03 233.432 1279.8 235.665 1280.98 238.375L1299.32 230.4ZM1286.92 215.2L1298.92 199.2C1289.07 191.812 1277.18 189.2 1265.32 189.2V209.2V229.2C1271.59 229.2 1274.1 230.588 1274.92 231.2L1286.92 215.2ZM1265.32 209.2V189.2C1253.4 189.2 1241.62 191.837 1231.69 198.925L1243.32 215.2L1254.94 231.475C1256.22 230.562 1259.11 229.2 1265.32 229.2V209.2ZM1243.32 215.2L1231.85 198.815C1223.57 204.614 1217.23 212.273 1212.88 221.371L1230.92 230L1248.96 238.629C1250.48 235.461 1252.4 233.253 1254.79 231.585L1243.32 215.2ZM1230.92 230L1212.88 221.371C1209.07 229.328 1206.51 237.751 1205.15 246.559L1224.92 249.6L1244.69 252.641C1245.46 247.583 1246.9 242.939 1248.96 238.629L1230.92 230Z" fill="black" mask="url(#path-9-outside-1_3381_47)"/>
<path d="M490 376V172.8C500.133 169.867 513.2 167.2 529.2 164.8C545.2 162.133 562 160.8 579.6 160.8C603.6 160.8 622.267 164.933 635.6 173.2C648.933 181.2 658.267 192.4 663.6 206.8C668.933 221.2 671.6 238 671.6 257.2V376H612V264.4C612 251.6 610.933 241.333 608.8 233.6C606.667 225.867 602.933 220.267 597.6 216.8C592.533 213.333 585.333 211.6 576 211.6C571.733 211.6 567.2 211.867 562.4 212.4C557.6 212.667 553.333 213.067 549.6 213.6V376H490Z" fill="white"/>
<path d="M774.747 380.8C753.147 380.8 736.214 377.067 723.947 369.6C711.947 361.867 703.547 351.2 698.747 337.6C693.947 324 691.547 308.133 691.547 290V113.2L751.147 103.6V165.6H822.747V215.2H751.147V289.2C751.147 297.467 752.08 304.8 753.947 311.2C755.814 317.333 759.147 322.133 763.947 325.6C768.747 328.8 775.547 330.4 784.347 330.4C790.747 330.4 797.28 329.867 803.947 328.8C810.88 327.467 817.147 325.733 822.747 323.6L831.147 370C823.947 372.933 815.947 375.467 807.147 377.6C798.347 379.733 787.547 380.8 774.747 380.8ZM839.281 376V176.8C849.948 173.067 862.481 169.6 876.881 166.4C891.548 162.933 907.815 161.2 925.681 161.2C929.948 161.2 935.148 161.6 941.281 162.4C947.681 162.933 953.948 163.733 960.081 164.8C966.481 165.867 971.815 167.333 976.081 169.2L966.081 218.4C960.748 217.067 954.481 215.733 947.281 214.4C940.081 212.8 932.348 212 924.081 212C920.348 212 915.815 212.4 910.481 213.2C905.415 213.733 901.548 214.4 898.881 215.2V376H839.281ZM1073.33 381.6C1047.99 381.6 1027.06 376.8 1010.53 367.2C994.258 357.6 982.125 344.533 974.125 328C966.125 311.467 962.125 292.933 962.125 272.4C962.125 247.6 966.925 226.933 976.525 210.4C986.392 193.6 998.925 181.067 1014.13 172.8C1029.59 164.267 1045.86 160 1062.93 160C1082.93 160 1100.13 164.133 1114.53 172.4C1128.93 180.4 1139.99 192.4 1147.73 208.4C1155.73 224.4 1159.73 244.267 1159.73 268C1159.73 271.467 1159.59 275.333 1159.33 279.6C1159.06 283.6 1158.79 287.2 1158.53 290.4H1023.33C1024.66 302.667 1030.39 312.4 1040.53 319.6C1050.66 326.8 1064.26 330.4 1081.33 330.4C1092.26 330.4 1102.93 329.467 1113.33 327.6C1123.99 325.467 1132.66 322.933 1139.33 320L1147.33 368.4C1140.93 371.6 1130.66 374.533 1116.53 377.2C1102.66 380.133 1088.26 381.6 1073.33 381.6ZM1023.33 249.6H1102.13C1101.86 242.933 1100.39 236.533 1097.73 230.4C1095.06 224.267 1090.93 219.2 1085.33 215.2C1079.99 211.2 1072.79 209.2 1063.73 209.2C1054.66 209.2 1047.33 211.2 1041.73 215.2C1036.39 218.933 1032.26 223.867 1029.33 230C1026.39 236.133 1024.39 242.667 1023.33 249.6ZM1274.92 381.6C1249.59 381.6 1228.65 376.8 1212.12 367.2C1195.85 357.6 1183.72 344.533 1175.72 328C1167.72 311.467 1163.72 292.933 1163.72 272.4C1163.72 247.6 1168.52 226.933 1178.12 210.4C1187.99 193.6 1200.52 181.067 1215.72 172.8C1231.19 164.267 1247.45 160 1264.52 160C1284.52 160 1301.72 164.133 1316.12 172.4C1330.52 180.4 1341.59 192.4 1349.32 208.4C1357.32 224.4 1361.32 244.267 1361.32 268C1361.32 271.467 1361.19 275.333 1360.92 279.6C1360.65 283.6 1360.39 287.2 1360.12 290.4H1224.92C1226.25 302.667 1231.99 312.4 1242.12 319.6C1252.25 326.8 1265.85 330.4 1282.92 330.4C1293.85 330.4 1304.52 329.467 1314.92 327.6C1325.59 325.467 1334.25 322.933 1340.92 320L1348.92 368.4C1342.52 371.6 1332.25 374.533 1318.12 377.2C1304.25 380.133 1289.85 381.6 1274.92 381.6ZM1224.92 249.6H1303.72C1303.45 242.933 1301.99 236.533 1299.32 230.4C1296.65 224.267 1292.52 219.2 1286.92 215.2C1281.59 211.2 1274.39 209.2 1265.32 209.2C1256.25 209.2 1248.92 211.2 1243.32 215.2C1237.99 218.933 1233.85 223.867 1230.92 230C1227.99 236.133 1225.99 242.667 1224.92 249.6Z" fill="#8AFF80"/>
</svg>
